<svg width="17" height="17" viewBox="0 0 17 17" fill="none" xmlns="http://www.w3.org/2000/svg">
<mask id="path-1-inside-1" fill="white">
<path d="M12.9317 15.89C13.4249 15.7778 13.8905 15.5677 14.3011 15.2723C14.7116 14.9768 15.0587 14.602 15.3217 14.17C15.8362 13.3259 16.0689 12.34 15.9862 11.3549C15.9035 10.3698 15.5097 9.43654 14.8617 8.69C14.8478 8.65034 14.8275 8.61319 14.8017 8.58L14.0117 7.66C13.4505 6.75832 13.2113 5.69315 13.3329 4.63809C13.4546 3.58303 13.93 2.60028 14.6817 1.85L15.6817 0.85C15.7733 0.756536 15.8246 0.630876 15.8246 0.5C15.8246 0.369124 15.7733 0.243464 15.6817 0.15C15.5913 0.059019 15.4699 0.00546019 15.3417 -2.88872e-08C15.2168 0.00696203 15.0991 0.0604824 15.0117 0.15L14.0117 1.15C13.27 1.89365 12.3003 2.36684 11.2577 2.49376C10.2151 2.62069 9.16011 2.39399 8.2617 1.85L7.1017 0.94C6.59375 0.556968 6.01127 0.284462 5.3917 0.14C4.79545 -0.0041049 4.17659 -0.0288136 3.57075 0.0672966C2.96491 0.163407 2.38408 0.378437 1.8617 0.699999C1.43078 0.96434 1.05678 1.3118 0.76148 1.72212C0.466184 2.13245 0.255499 2.59744 0.141701 3.09C0.0572508 3.38602 0.0135163 3.69217 0.0117005 4C0.0109661 4.70685 0.208441 5.39974 0.5817 6C1.01138 6.70765 1.70237 7.2177 2.50521 7.41981C3.30805 7.62192 4.15817 7.49985 4.8717 7.08C5.20702 6.87964 5.4933 6.60683 5.70958 6.28154C5.92586 5.95626 6.06667 5.58673 6.1217 5.2C6.20894 4.78552 6.18857 4.35561 6.06253 3.95123C5.93649 3.54686 5.70899 3.18151 5.4017 2.89C5.12001 2.6473 4.78301 2.47751 4.42033 2.39556C4.05764 2.3136 3.68038 2.322 3.3217 2.42C3.18909 2.45713 3.07667 2.54542 3.00915 2.66544C2.94164 2.78546 2.92457 2.92739 2.9617 3.06C2.99883 3.19261 3.08712 3.30503 3.20714 3.37255C3.32717 3.44006 3.46909 3.45713 3.6017 3.42C3.79684 3.36619 4.0023 3.36178 4.19956 3.40717C4.39683 3.45256 4.5797 3.54632 4.7317 3.68C4.91436 3.86072 5.04789 4.08507 5.11964 4.33181C5.19138 4.57854 5.19898 4.83951 5.1417 5.09C5.10301 5.32559 5.01426 5.55014 4.88144 5.74852C4.74861 5.9469 4.57479 6.11449 4.3717 6.24C3.88202 6.5248 3.30039 6.60683 2.75104 6.46856C2.2017 6.33029 1.7282 5.98268 1.4317 5.5C1.23437 5.18248 1.10262 4.82865 1.04422 4.45939C0.985829 4.09013 1.00197 3.71292 1.0917 3.35C1.17508 2.98667 1.33042 2.64373 1.54855 2.34144C1.76667 2.03916 2.04317 1.78364 2.3617 1.59C2.77247 1.3356 3.22942 1.16482 3.70635 1.08744C4.18328 1.01007 4.6708 1.02764 5.14092 1.13913C5.61104 1.25062 6.05453 1.45385 6.44592 1.73714C6.83732 2.02044 7.16892 2.37824 7.4217 2.79C7.98212 3.69015 8.22097 4.75363 8.09929 5.80697C7.97761 6.86031 7.50258 7.84133 6.7517 8.59L4.7517 10.59C4.70387 10.6349 4.66575 10.6891 4.63969 10.7493C4.61363 10.8095 4.60018 10.8744 4.60018 10.94C4.60018 11.0056 4.61363 11.0705 4.63969 11.1307C4.66575 11.1909 4.70387 11.2451 4.7517 11.29C4.79659 11.3378 4.85081 11.376 4.91101 11.402C4.9712 11.4281 5.0361 11.4415 5.1017 11.4415C5.1673 11.4415 5.2322 11.4281 5.2924 11.402C5.35259 11.376 5.40681 11.3378 5.4517 11.29L7.4517 9.29C8.20131 8.54071 9.18217 8.06679 10.235 7.94516C11.2879 7.82354 12.351 8.06135 13.2517 8.62C14.0812 9.13238 14.6735 9.95303 14.8985 10.9017C15.1235 11.8505 14.9628 12.8497 14.4517 13.68C14.2581 13.9985 14.0025 14.275 13.7003 14.4932C13.398 14.7113 13.055 14.8666 12.6917 14.95C12.3288 15.0397 11.9516 15.0559 11.5823 14.9975C11.213 14.9391 10.8592 14.8073 10.5417 14.61C10.059 14.3135 9.71141 13.84 9.57314 13.2907C9.43487 12.7413 9.5169 12.1597 9.8017 11.67C9.92721 11.4669 10.0948 11.2931 10.2932 11.1603C10.4916 11.0274 10.7161 10.9387 10.9517 10.9C11.2022 10.8427 11.4632 10.8503 11.7099 10.9221C11.9566 10.9938 12.181 11.1273 12.3617 11.31C12.4954 11.462 12.5891 11.6449 12.6345 11.8421C12.6799 12.0394 12.6755 12.2449 12.6217 12.44C12.5846 12.5726 12.6016 12.7145 12.6692 12.8346C12.7367 12.9546 12.8491 13.0429 12.9817 13.08C13.1143 13.1171 13.2562 13.1001 13.3763 13.0325C13.4963 12.965 13.5846 12.8526 13.6217 12.72C13.7252 12.3618 13.7363 11.9832 13.6542 11.6196C13.572 11.2559 13.3991 10.9189 13.1517 10.64C12.8598 10.3233 12.4908 10.0877 12.0807 9.95624C11.6705 9.82479 11.2333 9.80197 10.8117 9.89C10.4274 9.94438 10.0604 10.0851 9.73828 10.3016C9.41614 10.5181 9.14722 10.8047 8.9517 11.14C8.53009 11.8511 8.40494 12.6995 8.60324 13.5021C8.80155 14.3046 9.30741 14.9971 10.0117 15.43C10.4428 15.6984 10.9234 15.8774 11.425 15.9564C11.9266 16.0354 12.439 16.0129 12.9317 15.89ZM8.7317 3.18C10.0209 3.66501 11.4425 3.66501 12.7317 3.18C12.2273 4.49324 12.2273 5.94676 12.7317 7.26C11.442 6.77771 10.0214 6.77771 8.7317 7.26C9.23892 5.94729 9.23892 4.49271 8.7317 3.18Z"/>
</mask>
<path d="M12.9317 15.89C13.4249 15.7778 13.8905 15.5677 14.3011 15.2723C14.7116 14.9768 15.0587 14.602 15.3217 14.17C15.8362 13.3259 16.0689 12.34 15.9862 11.3549C15.9035 10.3698 15.5097 9.43654 14.8617 8.69C14.8478 8.65034 14.8275 8.61319 14.8017 8.58L14.0117 7.66C13.4505 6.75832 13.2113 5.69315 13.3329 4.63809C13.4546 3.58303 13.93 2.60028 14.6817 1.85L15.6817 0.85C15.7733 0.756536 15.8246 0.630876 15.8246 0.5C15.8246 0.369124 15.7733 0.243464 15.6817 0.15C15.5913 0.059019 15.4699 0.00546019 15.3417 -2.88872e-08C15.2168 0.00696203 15.0991 0.0604824 15.0117 0.15L14.0117 1.15C13.27 1.89365 12.3003 2.36684 11.2577 2.49376C10.2151 2.62069 9.16011 2.39399 8.2617 1.85L7.1017 0.94C6.59375 0.556968 6.01127 0.284462 5.3917 0.14C4.79545 -0.0041049 4.17659 -0.0288136 3.57075 0.0672966C2.96491 0.163407 2.38408 0.378437 1.8617 0.699999C1.43078 0.96434 1.05678 1.3118 0.76148 1.72212C0.466184 2.13245 0.255499 2.59744 0.141701 3.09C0.0572508 3.38602 0.0135163 3.69217 0.0117005 4C0.0109661 4.70685 0.208441 5.39974 0.5817 6C1.01138 6.70765 1.70237 7.2177 2.50521 7.41981C3.30805 7.62192 4.15817 7.49985 4.8717 7.08C5.20702 6.87964 5.4933 6.60683 5.70958 6.28154C5.92586 5.95626 6.06667 5.58673 6.1217 5.2C6.20894 4.78552 6.18857 4.35561 6.06253 3.95123C5.93649 3.54686 5.70899 3.18151 5.4017 2.89C5.12001 2.6473 4.78301 2.47751 4.42033 2.39556C4.05764 2.3136 3.68038 2.322 3.3217 2.42C3.18909 2.45713 3.07667 2.54542 3.00915 2.66544C2.94164 2.78546 2.92457 2.92739 2.9617 3.06C2.99883 3.19261 3.08712 3.30503 3.20714 3.37255C3.32717 3.44006 3.46909 3.45713 3.6017 3.42C3.79684 3.36619 4.0023 3.36178 4.19956 3.40717C4.39683 3.45256 4.5797 3.54632 4.7317 3.68C4.91436 3.86072 5.04789 4.08507 5.11964 4.33181C5.19138 4.57854 5.19898 4.83951 5.1417 5.09C5.10301 5.32559 5.01426 5.55014 4.88144 5.74852C4.74861 5.9469 4.57479 6.11449 4.3717 6.24C3.88202 6.5248 3.30039 6.60683 2.75104 6.46856C2.2017 6.33029 1.7282 5.98268 1.4317 5.5C1.23437 5.18248 1.10262 4.82865 1.04422 4.45939C0.985829 4.09013 1.00197 3.71292 1.0917 3.35C1.17508 2.98667 1.33042 2.64373 1.54855 2.34144C1.76667 2.03916 2.04317 1.78364 2.3617 1.59C2.77247 1.3356 3.22942 1.16482 3.70635 1.08744C4.18328 1.01007 4.6708 1.02764 5.14092 1.13913C5.61104 1.25062 6.05453 1.45385 6.44592 1.73714C6.83732 2.02044 7.16892 2.37824 7.4217 2.79C7.98212 3.69015 8.22097 4.75363 8.09929 5.80697C7.97761 6.86031 7.50258 7.84133 6.7517 8.59L4.7517 10.59C4.70387 10.6349 4.66575 10.6891 4.63969 10.7493C4.61363 10.8095 4.60018 10.8744 4.60018 10.94C4.60018 11.0056 4.61363 11.0705 4.63969 11.1307C4.66575 11.1909 4.70387 11.2451 4.7517 11.29C4.79659 11.3378 4.85081 11.376 4.91101 11.402C4.9712 11.4281 5.0361 11.4415 5.1017 11.4415C5.1673 11.4415 5.2322 11.4281 5.2924 11.402C5.35259 11.376 5.40681 11.3378 5.4517 11.29L7.4517 9.29C8.20131 8.54071 9.18217 8.06679 10.235 7.94516C11.2879 7.82354 12.351 8.06135 13.2517 8.62C14.0812 9.13238 14.6735 9.95303 14.8985 10.9017C15.1235 11.8505 14.9628 12.8497 14.4517 13.68C14.2581 13.9985 14.0025 14.275 13.7003 14.4932C13.398 14.7113 13.055 14.8666 12.6917 14.95C12.3288 15.0397 11.9516 15.0559 11.5823 14.9975C11.213 14.9391 10.8592 14.8073 10.5417 14.61C10.059 14.3135 9.71141 13.84 9.57314 13.2907C9.43487 12.7413 9.5169 12.1597 9.8017 11.67C9.92721 11.4669 10.0948 11.2931 10.2932 11.1603C10.4916 11.0274 10.7161 10.9387 10.9517 10.9C11.2022 10.8427 11.4632 10.8503 11.7099 10.9221C11.9566 10.9938 12.181 11.1273 12.3617 11.31C12.4954 11.462 12.5891 11.6449 12.6345 11.8421C12.6799 12.0394 12.6755 12.2449 12.6217 12.44C12.5846 12.5726 12.6016 12.7145 12.6692 12.8346C12.7367 12.9546 12.8491 13.0429 12.9817 13.08C13.1143 13.1171 13.2562 13.1001 13.3763 13.0325C13.4963 12.965 13.5846 12.8526 13.6217 12.72C13.7252 12.3618 13.7363 11.9832 13.6542 11.6196C13.572 11.2559 13.3991 10.9189 13.1517 10.64C12.8598 10.3233 12.4908 10.0877 12.0807 9.95624C11.6705 9.82479 11.2333 9.80197 10.8117 9.89C10.4274 9.94438 10.0604 10.0851 9.73828 10.3016C9.41614 10.5181 9.14722 10.8047 8.9517 11.14C8.53009 11.8511 8.40494 12.6995 8.60324 13.5021C8.80155 14.3046 9.30741 14.9971 10.0117 15.43C10.4428 15.6984 10.9234 15.8774 11.425 15.9564C11.9266 16.0354 12.439 16.0129 12.9317 15.89ZM8.7317 3.18C10.0209 3.66501 11.4425 3.66501 12.7317 3.18C12.2273 4.49324 12.2273 5.94676 12.7317 7.26C11.442 6.77771 10.0214 6.77771 8.7317 7.26C9.23892 5.94729 9.23892 4.49271 8.7317 3.18Z" stroke="#E0E0E0" stroke-width="2" mask="url(#path-1-inside-1)"/>
</svg>
