<svg width="196" height="196" viewBox="0 0 196 196" fill="none" xmlns="http://www.w3.org/2000/svg">
<path d="M16.89 4.07672C16.7778 3.58354 16.5677 3.11789 16.2723 2.70736C15.9768 2.29682 15.602 1.94976 15.17 1.68672C14.3259 1.17223 13.34 0.939504 12.3549 1.02219C11.3698 1.10489 10.4365 1.49871 9.69 2.14672C9.65034 2.16066 9.61319 2.18092 9.58 2.20672L8.66 2.99672C7.75832 3.55791 6.69315 3.79717 5.63809 3.6755C4.58303 3.55383 3.60028 3.07841 2.85 2.32672L1.85 1.32672C1.75654 1.23511 1.63088 1.18379 1.5 1.18379C1.36912 1.18379 1.24346 1.23511 1.15 1.32672C1.05902 1.41716 1.00546 1.53856 1 1.66672C1.00696 1.79161 1.06048 1.90936 1.15 1.99672L2.15 2.99672C2.89365 3.73837 3.36684 4.70817 3.49376 5.75074C3.62069 6.79331 3.39399 7.84831 2.85 8.74672L1.94 9.90672C1.55697 10.4147 1.28446 10.9972 1.14 11.6167C0.995896 12.213 0.971187 12.8318 1.0673 13.4377C1.16341 14.0435 1.37844 14.6243 1.7 15.1467C1.96434 15.5776 2.3118 15.9516 2.72212 16.2469C3.13245 16.5422 3.59744 16.7529 4.09 16.8667C4.38602 16.9512 4.69217 16.9949 5 16.9967C5.70685 16.9975 6.39974 16.8 7 16.4267C7.70765 15.997 8.2177 15.306 8.41981 14.5032C8.62192 13.7004 8.49985 12.8502 8.08 12.1367C7.87964 11.8014 7.60683 11.5151 7.28154 11.2988C6.95626 11.0826 6.58673 10.9418 6.2 10.8867C5.78552 10.7995 5.35561 10.8199 4.95123 10.9459C4.54686 11.0719 4.18151 11.2994 3.89 11.6067C3.6473 11.8884 3.47751 12.2254 3.39556 12.5881C3.3136 12.9508 3.322 13.328 3.42 13.6867C3.45713 13.8193 3.54542 13.9318 3.66544 13.9993C3.78546 14.0668 3.92739 14.0839 4.06 14.0467C4.19261 14.0096 4.30504 13.9213 4.37255 13.8013C4.44006 13.6813 4.45713 13.5393 4.42 13.4067C4.36619 13.2116 4.36178 13.0061 4.40717 12.8089C4.45256 12.6116 4.54632 12.4287 4.68 12.2767C4.86072 12.0941 5.08507 11.9605 5.33181 11.8888C5.57854 11.817 5.83951 11.8094 6.09 11.8667C6.32559 11.9054 6.55014 11.9942 6.74852 12.127C6.9469 12.2598 7.11449 12.4336 7.24 12.6367C7.5248 13.1264 7.60683 13.708 7.46856 14.2574C7.33029 14.8067 6.98268 15.2802 6.5 15.5767C6.18248 15.7741 5.82865 15.9058 5.45939 15.9642C5.09013 16.0226 4.71292 16.0065 4.35 15.9167C3.98667 15.8333 3.64373 15.678 3.34145 15.4599C3.03916 15.2417 2.78364 14.9653 2.59 14.6467C2.3356 14.236 2.16482 13.779 2.08744 13.3021C2.01007 12.8251 2.02764 12.3376 2.13913 11.8675C2.25062 11.3974 2.45385 10.9539 2.73714 10.5625C3.02044 10.1711 3.37824 9.83951 3.79 9.58672C4.69015 9.02631 5.75363 8.78745 6.80697 8.90913C7.86031 9.03081 8.84133 9.50584 9.59 10.2567L11.59 12.2567C11.6349 12.3046 11.6891 12.3427 11.7493 12.3687C11.8095 12.3948 11.8744 12.4082 11.94 12.4082C12.0056 12.4082 12.0705 12.3948 12.1307 12.3687C12.1909 12.3427 12.2451 12.3046 12.29 12.2567C12.3378 12.2118 12.376 12.1576 12.402 12.0974C12.4281 12.0372 12.4415 11.9723 12.4415 11.9067C12.4415 11.8411 12.4281 11.7762 12.402 11.716C12.376 11.6558 12.3378 11.6016 12.29 11.5567L10.29 9.55672C9.54071 8.80711 9.06679 7.82625 8.94516 6.77338C8.82354 5.7205 9.06135 4.65742 9.62 3.75672C10.1324 2.92718 10.953 2.33488 11.9017 2.10989C12.8505 1.8849 13.8497 2.04561 14.68 2.55672C14.9985 2.75037 15.275 3.00588 15.4932 3.30817C15.7113 3.61046 15.8666 3.95339 15.95 4.31672C16.0397 4.67964 16.0559 5.05686 15.9975 5.42611C15.9391 5.79537 15.8073 6.1492 15.61 6.46672C15.3135 6.94941 14.84 7.29701 14.2907 7.43528C13.7413 7.57355 13.1597 7.49152 12.67 7.20672C12.4669 7.08121 12.2931 6.91362 12.1603 6.71524C12.0274 6.51686 11.9387 6.29231 11.9 6.05672C11.8427 5.80623 11.8503 5.54527 11.9221 5.29853C11.9938 5.05179 12.1273 4.82744 12.31 4.64672C12.462 4.51304 12.6449 4.41928 12.8421 4.3739C13.0394 4.32851 13.2449 4.33291 13.44 4.38672C13.5726 4.42385 13.7145 4.40678 13.8346 4.33927C13.9546 4.27176 14.0429 4.15933 14.08 4.02672C14.1171 3.89411 14.1001 3.75219 14.0325 3.63216C13.965 3.51214 13.8526 3.42385 13.72 3.38672C13.3618 3.28325 12.9832 3.27208 12.6196 3.35425C12.2559 3.43643 11.9189 3.60928 11.64 3.85672C11.3233 4.14859 11.0877 4.51762 10.9562 4.92776C10.8248 5.3379 10.802 5.77512 10.89 6.19672C10.9444 6.58102 11.0851 6.94801 11.3016 7.27014C11.5181 7.59228 11.8047 7.8612 12.14 8.05672C12.8511 8.47833 13.6995 8.60349 14.5021 8.40518C15.3046 8.20688 15.9971 7.70101 16.43 6.99672C16.6984 6.56564 16.8774 6.08503 16.9564 5.58342C17.0354 5.08181 17.0129 4.56943 16.89 4.07672ZM4.18 8.27672C4.66501 6.9875 4.66501 5.56595 4.18 4.27672C5.49324 4.78108 6.94676 4.78108 8.26 4.27672C7.77771 5.56644 7.77771 6.987 8.26 8.27672C6.94729 7.7695 5.49271 7.7695 4.18 8.27672Z" fill="white" fill-opacity="0.5"/>
<path d="M191.926 16.89C192.419 16.7778 192.885 16.5677 193.295 16.2723C193.706 15.9768 194.053 15.602 194.316 15.17C194.83 14.3259 195.063 13.34 194.98 12.3549C194.898 11.3698 194.504 10.4365 193.856 9.69C193.842 9.65034 193.822 9.61319 193.796 9.58L193.006 8.66C192.445 7.75832 192.205 6.69315 192.327 5.63809C192.449 4.58303 192.924 3.60028 193.676 2.85L194.676 1.85C194.767 1.75654 194.819 1.63088 194.819 1.5C194.819 1.36912 194.767 1.24346 194.676 1.15C194.585 1.05902 194.464 1.00546 194.336 1C194.211 1.00696 194.093 1.06048 194.006 1.15L193.006 2.15C192.264 2.89365 191.294 3.36684 190.252 3.49376C189.209 3.62069 188.154 3.39399 187.256 2.85L186.096 1.94C185.588 1.55697 185.005 1.28446 184.386 1.14C183.79 0.995895 183.171 0.971186 182.565 1.0673C181.959 1.16341 181.378 1.37844 180.856 1.7C180.425 1.96434 180.051 2.3118 179.756 2.72212C179.46 3.13245 179.25 3.59744 179.136 4.09C179.051 4.38602 179.008 4.69217 179.006 5C179.005 5.70685 179.203 6.39974 179.576 7C180.006 7.70765 180.697 8.2177 181.499 8.41981C182.302 8.62192 183.152 8.49985 183.866 8.08C184.201 7.87964 184.487 7.60683 184.704 7.28154C184.92 6.95626 185.061 6.58673 185.116 6.2C185.203 5.78552 185.183 5.35561 185.057 4.95123C184.931 4.54686 184.703 4.18151 184.396 3.89C184.114 3.6473 183.777 3.47751 183.414 3.39556C183.052 3.3136 182.675 3.322 182.316 3.42C182.183 3.45713 182.071 3.54542 182.003 3.66544C181.936 3.78546 181.919 3.92739 181.956 4.06C181.993 4.19261 182.081 4.30503 182.201 4.37255C182.321 4.44006 182.463 4.45713 182.596 4.42C182.791 4.36619 182.996 4.36178 183.194 4.40717C183.391 4.45256 183.574 4.54632 183.726 4.68C183.909 4.86072 184.042 5.08507 184.114 5.33181C184.186 5.57854 184.193 5.83951 184.136 6.09C184.097 6.32559 184.008 6.55014 183.876 6.74852C183.743 6.9469 183.569 7.11449 183.366 7.24C182.876 7.5248 182.295 7.60683 181.745 7.46856C181.196 7.33029 180.722 6.98268 180.426 6.5C180.229 6.18248 180.097 5.82865 180.038 5.45939C179.98 5.09013 179.996 4.71292 180.086 4.35C180.169 3.98667 180.325 3.64373 180.543 3.34144C180.761 3.03916 181.037 2.78364 181.356 2.59C181.767 2.3356 182.224 2.16482 182.7 2.08744C183.177 2.01007 183.665 2.02764 184.135 2.13913C184.605 2.25062 185.049 2.45385 185.44 2.73714C185.831 3.02044 186.163 3.37824 186.416 3.79C186.976 4.69015 187.215 5.75363 187.093 6.80697C186.972 7.86031 186.497 8.84133 185.746 9.59L183.746 11.59C183.698 11.6349 183.66 11.6891 183.634 11.7493C183.608 11.8095 183.594 11.8744 183.594 11.94C183.594 12.0056 183.608 12.0705 183.634 12.1307C183.66 12.1909 183.698 12.2451 183.746 12.29C183.791 12.3378 183.845 12.376 183.905 12.402C183.965 12.4281 184.03 12.4415 184.096 12.4415C184.161 12.4415 184.226 12.4281 184.287 12.402C184.347 12.376 184.401 12.3378 184.446 12.29L186.446 10.29C187.195 9.54071 188.176 9.06679 189.229 8.94516C190.282 8.82354 191.345 9.06135 192.246 9.62C193.075 10.1324 193.668 10.953 193.893 11.9017C194.118 12.8505 193.957 13.8497 193.446 14.68C193.252 14.9985 192.997 15.275 192.694 15.4932C192.392 15.7113 192.049 15.8666 191.686 15.95C191.323 16.0397 190.946 16.0559 190.576 15.9975C190.207 15.9391 189.853 15.8073 189.536 15.61C189.053 15.3135 188.706 14.84 188.567 14.2907C188.429 13.7413 188.511 13.1597 188.796 12.67C188.921 12.4669 189.089 12.2931 189.287 12.1603C189.486 12.0274 189.71 11.9387 189.946 11.9C190.196 11.8427 190.457 11.8503 190.704 11.9221C190.951 11.9938 191.175 12.1273 191.356 12.31C191.49 12.462 191.583 12.6449 191.629 12.8421C191.674 13.0394 191.67 13.2449 191.616 13.44C191.579 13.5726 191.596 13.7145 191.663 13.8346C191.731 13.9546 191.843 14.0429 191.976 14.08C192.108 14.1171 192.25 14.1001 192.37 14.0325C192.49 13.965 192.579 13.8526 192.616 13.72C192.719 13.3618 192.73 12.9832 192.648 12.6196C192.566 12.2559 192.393 11.9189 192.146 11.64C191.854 11.3233 191.485 11.0877 191.075 10.9562C190.665 10.8248 190.227 10.802 189.806 10.89C189.422 10.9444 189.055 11.0851 188.732 11.3016C188.41 11.5181 188.141 11.8047 187.946 12.14C187.524 12.8511 187.399 13.6995 187.597 14.5021C187.796 15.3046 188.302 15.9971 189.006 16.43C189.437 16.6984 189.918 16.8774 190.419 16.9564C190.921 17.0354 191.433 17.0129 191.926 16.89ZM187.726 4.18C189.015 4.66501 190.437 4.66501 191.726 4.18C191.221 5.49324 191.221 6.94676 191.726 8.26C190.436 7.77771 189.016 7.77771 187.726 8.26C188.233 6.94729 188.233 5.49271 187.726 4.18Z" fill="white" fill-opacity="0.5"/>
<path d="M179.107 191.932C179.219 192.425 179.429 192.891 179.724 193.301C180.02 193.712 180.395 194.059 180.827 194.322C181.671 194.836 182.657 195.069 183.642 194.986C184.627 194.904 185.56 194.51 186.307 193.862C186.346 193.848 186.384 193.828 186.417 193.802L187.337 193.012C188.238 192.451 189.304 192.211 190.359 192.333C191.414 192.455 192.396 192.93 193.147 193.682L194.147 194.682C194.24 194.773 194.366 194.825 194.497 194.825C194.628 194.825 194.753 194.773 194.847 194.682C194.938 194.591 194.991 194.47 194.997 194.342C194.99 194.217 194.936 194.099 194.847 194.012L193.847 193.012C193.103 192.27 192.63 191.3 192.503 190.258C192.376 189.215 192.603 188.16 193.147 187.262L194.057 186.102C194.44 185.594 194.712 185.011 194.857 184.392C195.001 183.796 195.026 183.177 194.929 182.571C194.833 181.965 194.618 181.384 194.297 180.862C194.032 180.431 193.685 180.057 193.275 179.762C192.864 179.466 192.399 179.256 191.907 179.142C191.611 179.057 191.305 179.014 190.997 179.012C190.29 179.011 189.597 179.209 188.997 179.582C188.289 180.011 187.779 180.702 187.577 181.505C187.375 182.308 187.497 183.158 187.917 183.872C188.117 184.207 188.39 184.493 188.715 184.71C189.04 184.926 189.41 185.067 189.797 185.122C190.211 185.209 190.641 185.189 191.045 185.063C191.45 184.937 191.815 184.709 192.107 184.402C192.349 184.12 192.519 183.783 192.601 183.42C192.683 183.058 192.675 182.68 192.577 182.322C192.54 182.189 192.451 182.077 192.331 182.009C192.211 181.942 192.069 181.925 191.937 181.962C191.804 181.999 191.692 182.087 191.624 182.207C191.557 182.327 191.54 182.469 191.577 182.602C191.631 182.797 191.635 183.002 191.59 183.2C191.544 183.397 191.45 183.58 191.317 183.732C191.136 183.914 190.912 184.048 190.665 184.12C190.418 184.191 190.157 184.199 189.907 184.142C189.671 184.103 189.447 184.014 189.248 183.881C189.05 183.749 188.882 183.575 188.757 183.372C188.472 182.882 188.39 182.3 188.528 181.751C188.666 181.202 189.014 180.728 189.497 180.432C189.814 180.234 190.168 180.103 190.537 180.044C190.907 179.986 191.284 180.002 191.647 180.092C192.01 180.175 192.353 180.33 192.655 180.549C192.958 180.767 193.213 181.043 193.407 181.362C193.661 181.773 193.832 182.229 193.909 182.706C193.987 183.183 193.969 183.671 193.858 184.141C193.746 184.611 193.543 185.055 193.26 185.446C192.976 185.837 192.618 186.169 192.207 186.422C191.307 186.982 190.243 187.221 189.19 187.099C188.136 186.978 187.155 186.503 186.407 185.752L184.407 183.752C184.362 183.704 184.308 183.666 184.247 183.64C184.187 183.614 184.122 183.6 184.057 183.6C183.991 183.6 183.926 183.614 183.866 183.64C183.806 183.666 183.752 183.704 183.707 183.752C183.659 183.797 183.621 183.851 183.595 183.911C183.569 183.971 183.555 184.036 183.555 184.102C183.555 184.167 183.569 184.232 183.595 184.292C183.621 184.353 183.659 184.407 183.707 184.452L185.707 186.452C186.456 187.201 186.93 188.182 187.052 189.235C187.173 190.288 186.935 191.351 186.377 192.252C185.864 193.081 185.044 193.674 184.095 193.899C183.146 194.124 182.147 193.963 181.317 193.452C180.998 193.258 180.722 193.003 180.504 192.7C180.285 192.398 180.13 192.055 180.047 191.692C179.957 191.329 179.941 190.952 179.999 190.582C180.058 190.213 180.189 189.859 180.387 189.542C180.683 189.059 181.157 188.711 181.706 188.573C182.255 188.435 182.837 188.517 183.327 188.802C183.53 188.927 183.704 189.095 183.836 189.293C183.969 189.492 184.058 189.716 184.097 189.952C184.154 190.202 184.146 190.463 184.075 190.71C184.003 190.957 183.869 191.181 183.687 191.362C183.535 191.495 183.352 191.589 183.155 191.635C182.957 191.68 182.752 191.676 182.557 191.622C182.424 191.585 182.282 191.602 182.162 191.669C182.042 191.737 181.954 191.849 181.917 191.982C181.88 192.114 181.897 192.256 181.964 192.376C182.032 192.496 182.144 192.585 182.277 192.622C182.635 192.725 183.013 192.736 183.377 192.654C183.741 192.572 184.078 192.399 184.357 192.152C184.673 191.86 184.909 191.491 185.04 191.081C185.172 190.671 185.195 190.233 185.107 189.812C185.052 189.427 184.912 189.06 184.695 188.738C184.479 188.416 184.192 188.147 183.857 187.952C183.146 187.53 182.297 187.405 181.495 187.603C180.692 187.802 180 188.307 179.567 189.012C179.298 189.443 179.119 189.923 179.04 190.425C178.961 190.927 178.984 191.439 179.107 191.932ZM191.817 187.732C191.332 189.021 191.332 190.443 191.817 191.732C190.503 191.227 189.05 191.227 187.737 191.732C188.219 190.442 188.219 189.021 187.737 187.732C189.049 188.239 190.504 188.239 191.817 187.732Z" fill="white" fill-opacity="0.5"/>
<path d="M4.07087 179.118C3.57768 179.231 3.11203 179.441 2.7015 179.736C2.29097 180.032 1.9439 180.406 1.68086 180.838C1.16637 181.683 0.933647 182.668 1.01634 183.654C1.09903 184.639 1.49285 185.572 2.14086 186.318C2.1548 186.358 2.17507 186.395 2.20086 186.428L2.99086 187.348C3.55205 188.25 3.79131 189.315 3.66964 190.37C3.54797 191.425 3.07255 192.408 2.32086 193.158L1.32086 194.158C1.22925 194.252 1.17793 194.378 1.17793 194.508C1.17793 194.639 1.22925 194.765 1.32086 194.858C1.4113 194.949 1.5327 195.003 1.66086 195.008C1.78575 195.001 1.9035 194.948 1.99086 194.858L2.99086 193.858C3.73251 193.115 4.70231 192.642 5.74488 192.515C6.78745 192.388 7.84246 192.614 8.74086 193.158L9.90086 194.068C10.4088 194.451 10.9913 194.724 11.6109 194.868C12.2071 195.013 12.826 195.037 13.4318 194.941C14.0377 194.845 14.6185 194.63 15.1409 194.308C15.5718 194.044 15.9458 193.697 16.2411 193.286C16.5364 192.876 16.7471 192.411 16.8609 191.918C16.9453 191.622 16.989 191.316 16.9909 191.008C16.9916 190.302 16.7941 189.609 16.4209 189.008C15.9912 188.301 15.3002 187.791 14.4974 187.589C13.6945 187.387 12.8444 187.509 12.1309 187.928C11.7955 188.129 11.5093 188.402 11.293 188.727C11.0767 189.052 10.9359 189.422 10.8809 189.808C10.7936 190.223 10.814 190.653 10.94 191.057C11.0661 191.462 11.2936 191.827 11.6009 192.118C11.8826 192.361 12.2196 192.531 12.5822 192.613C12.9449 192.695 13.3222 192.686 13.6809 192.588C13.8135 192.551 13.9259 192.463 13.9934 192.343C14.0609 192.223 14.078 192.081 14.0409 191.948C14.0037 191.816 13.9154 191.703 13.7954 191.636C13.6754 191.568 13.5335 191.551 13.4009 191.588C13.2057 191.642 13.0003 191.647 12.803 191.601C12.6057 191.556 12.4229 191.462 12.2709 191.328C12.0882 191.148 11.9547 190.923 11.8829 190.677C11.8112 190.43 11.8036 190.169 11.8609 189.918C11.8996 189.683 11.9883 189.458 12.1211 189.26C12.254 189.062 12.4278 188.894 12.6309 188.768C13.1205 188.484 13.7022 188.402 14.2515 188.54C14.8009 188.678 15.2744 189.026 15.5709 189.508C15.7682 189.826 15.8999 190.18 15.9583 190.549C16.0167 190.918 16.0006 191.296 15.9109 191.658C15.8275 192.022 15.6721 192.365 15.454 192.667C15.2359 192.969 14.9594 193.225 14.6409 193.418C14.2301 193.673 13.7731 193.844 13.2962 193.921C12.8193 193.998 12.3318 193.981 11.8616 193.869C11.3915 193.758 10.948 193.555 10.5566 193.271C10.1652 192.988 9.83365 192.63 9.58086 192.218C9.02045 191.318 8.7816 190.255 8.90327 189.201C9.02495 188.148 9.49998 187.167 10.2509 186.418L12.2509 184.418C12.2987 184.374 12.3368 184.319 12.3629 184.259C12.3889 184.199 12.4024 184.134 12.4024 184.068C12.4024 184.003 12.3889 183.938 12.3629 183.878C12.3368 183.818 12.2987 183.763 12.2509 183.718C12.206 183.671 12.1518 183.632 12.0916 183.606C12.0314 183.58 11.9665 183.567 11.9009 183.567C11.8353 183.567 11.7704 183.58 11.7102 183.606C11.65 183.632 11.5958 183.671 11.5509 183.718L9.55086 185.718C8.80126 186.468 7.8204 186.942 6.76752 187.063C5.71464 187.185 4.65156 186.947 3.75086 186.388C2.92132 185.876 2.32902 185.055 2.10403 184.107C1.87904 183.158 2.03975 182.159 2.55086 181.328C2.74451 181.01 3.00002 180.733 3.30231 180.515C3.6046 180.297 3.94754 180.142 4.31086 180.058C4.67378 179.969 5.051 179.953 5.42026 180.011C5.78952 180.069 6.14334 180.201 6.46086 180.398C6.94355 180.695 7.29115 181.168 7.42942 181.718C7.56769 182.267 7.48567 182.849 7.20086 183.338C7.07536 183.542 6.90776 183.715 6.70938 183.848C6.511 183.981 6.28645 184.07 6.05086 184.108C5.80037 184.166 5.53941 184.158 5.29267 184.086C5.04593 184.015 4.82159 183.881 4.64086 183.698C4.50718 183.546 4.41343 183.364 4.36804 183.166C4.32265 182.969 4.32706 182.764 4.38086 182.568C4.418 182.436 4.40093 182.294 4.33341 182.174C4.2659 182.054 4.15347 181.966 4.02086 181.928C3.88826 181.891 3.74633 181.908 3.62631 181.976C3.50628 182.043 3.418 182.156 3.38086 182.288C3.27739 182.647 3.26622 183.025 3.3484 183.389C3.43057 183.753 3.60343 184.09 3.85086 184.368C4.14274 184.685 4.51177 184.921 4.9219 185.052C5.33204 185.184 5.76927 185.206 6.19086 185.118C6.57516 185.064 6.94215 184.923 7.26429 184.707C7.58642 184.49 7.85534 184.204 8.05086 183.868C8.47247 183.157 8.59763 182.309 8.39932 181.506C8.20102 180.704 7.69515 180.011 6.99086 179.578C6.55979 179.31 6.07917 179.131 5.57756 179.052C5.07595 178.973 4.56358 178.996 4.07087 179.118ZM8.27086 191.828C6.98164 191.343 5.56009 191.343 4.27086 191.828C4.77522 190.515 4.77522 189.062 4.27086 187.748C5.56058 188.231 6.98114 188.231 8.27086 187.748C7.76364 189.061 7.76364 190.516 8.27086 191.828Z" fill="white" fill-opacity="0.5"/>
<path d="M1 27.5059L0.999993 168.506" stroke="white" stroke-opacity="0.5" stroke-linecap="round" stroke-linejoin="round"/>
<path d="M195 27.5059L195 168.506" stroke="white" stroke-opacity="0.5" stroke-linecap="round" stroke-linejoin="round"/>
<path d="M168.5 1.00586L27.5 1.00585" stroke="white" stroke-opacity="0.5" stroke-linecap="round" stroke-linejoin="round"/>
<path d="M168.5 195.006L27.5 195.006" stroke="white" stroke-opacity="0.5" stroke-linecap="round" stroke-linejoin="round"/>
</svg>
