<svg width="451" height="233" viewBox="0 0 451 233" fill="none" xmlns="http://www.w3.org/2000/svg">
<mask id="path-1-inside-1" fill="white">
<path d="M16.89 4.07672C16.7778 3.58354 16.5677 3.11789 16.2723 2.70736C15.9768 2.29682 15.602 1.94976 15.17 1.68672C14.3259 1.17223 13.34 0.939504 12.3549 1.02219C11.3698 1.10489 10.4365 1.49871 9.69 2.14672C9.65034 2.16066 9.61319 2.18092 9.58 2.20672L8.66 2.99672C7.75832 3.55791 6.69315 3.79717 5.63809 3.6755C4.58303 3.55383 3.60028 3.07841 2.85 2.32672L1.85 1.32672C1.75654 1.23511 1.63088 1.18379 1.5 1.18379C1.36912 1.18379 1.24346 1.23511 1.15 1.32672C1.05902 1.41716 1.00546 1.53856 1 1.66672C1.00696 1.79161 1.06048 1.90936 1.15 1.99672L2.15 2.99672C2.89365 3.73837 3.36684 4.70817 3.49376 5.75074C3.62069 6.79331 3.39399 7.84831 2.85 8.74672L1.94 9.90672C1.55697 10.4147 1.28446 10.9972 1.14 11.6167C0.995896 12.213 0.971187 12.8318 1.0673 13.4377C1.16341 14.0435 1.37844 14.6243 1.7 15.1467C1.96434 15.5776 2.3118 15.9516 2.72212 16.2469C3.13245 16.5422 3.59744 16.7529 4.09 16.8667C4.38602 16.9512 4.69217 16.9949 5 16.9967C5.70685 16.9975 6.39974 16.8 7 16.4267C7.70765 15.997 8.2177 15.306 8.41981 14.5032C8.62192 13.7004 8.49985 12.8502 8.08 12.1367C7.87964 11.8014 7.60683 11.5151 7.28154 11.2988C6.95626 11.0826 6.58673 10.9418 6.2 10.8867C5.78552 10.7995 5.35561 10.8199 4.95123 10.9459C4.54686 11.0719 4.18151 11.2994 3.89 11.6067C3.6473 11.8884 3.47751 12.2254 3.39556 12.5881C3.3136 12.9508 3.322 13.328 3.42 13.6867C3.45713 13.8193 3.54542 13.9318 3.66544 13.9993C3.78546 14.0668 3.92739 14.0839 4.06 14.0467C4.19261 14.0096 4.30504 13.9213 4.37255 13.8013C4.44006 13.6813 4.45713 13.5393 4.42 13.4067C4.36619 13.2116 4.36178 13.0061 4.40717 12.8089C4.45256 12.6116 4.54632 12.4287 4.68 12.2767C4.86072 12.0941 5.08507 11.9605 5.33181 11.8888C5.57854 11.817 5.83951 11.8094 6.09 11.8667C6.32559 11.9054 6.55014 11.9942 6.74852 12.127C6.9469 12.2598 7.11449 12.4336 7.24 12.6367C7.5248 13.1264 7.60683 13.708 7.46856 14.2574C7.33029 14.8067 6.98268 15.2802 6.5 15.5767C6.18248 15.7741 5.82865 15.9058 5.45939 15.9642C5.09013 16.0226 4.71292 16.0065 4.35 15.9167C3.98667 15.8333 3.64373 15.678 3.34145 15.4599C3.03916 15.2417 2.78364 14.9653 2.59 14.6467C2.3356 14.236 2.16482 13.779 2.08744 13.3021C2.01007 12.8251 2.02764 12.3376 2.13913 11.8675C2.25062 11.3974 2.45385 10.9539 2.73714 10.5625C3.02044 10.1711 3.37824 9.83951 3.79 9.58672C4.69015 9.02631 5.75363 8.78745 6.80697 8.90913C7.86031 9.03081 8.84133 9.50584 9.59 10.2567L11.59 12.2567C11.6349 12.3046 11.6891 12.3427 11.7493 12.3687C11.8095 12.3948 11.8744 12.4082 11.94 12.4082C12.0056 12.4082 12.0705 12.3948 12.1307 12.3687C12.1909 12.3427 12.2451 12.3046 12.29 12.2567C12.3378 12.2118 12.376 12.1576 12.402 12.0974C12.4281 12.0372 12.4415 11.9723 12.4415 11.9067C12.4415 11.8411 12.4281 11.7762 12.402 11.716C12.376 11.6558 12.3378 11.6016 12.29 11.5567L10.29 9.55672C9.54071 8.80711 9.06679 7.82625 8.94516 6.77338C8.82354 5.7205 9.06135 4.65742 9.62 3.75672C10.1324 2.92718 10.953 2.33488 11.9017 2.10989C12.8505 1.8849 13.8497 2.04561 14.68 2.55672C14.9985 2.75037 15.275 3.00588 15.4932 3.30817C15.7113 3.61046 15.8666 3.95339 15.95 4.31672C16.0397 4.67964 16.0559 5.05686 15.9975 5.42611C15.9391 5.79537 15.8073 6.1492 15.61 6.46672C15.3135 6.94941 14.84 7.29701 14.2907 7.43528C13.7413 7.57355 13.1597 7.49152 12.67 7.20672C12.4669 7.08121 12.2931 6.91362 12.1603 6.71524C12.0274 6.51686 11.9387 6.29231 11.9 6.05672C11.8427 5.80623 11.8503 5.54527 11.9221 5.29853C11.9938 5.05179 12.1273 4.82744 12.31 4.64672C12.462 4.51304 12.6449 4.41928 12.8421 4.3739C13.0394 4.32851 13.2449 4.33291 13.44 4.38672C13.5726 4.42385 13.7145 4.40678 13.8346 4.33927C13.9546 4.27176 14.0429 4.15933 14.08 4.02672C14.1171 3.89411 14.1001 3.75219 14.0325 3.63216C13.965 3.51214 13.8526 3.42385 13.72 3.38672C13.3618 3.28325 12.9832 3.27208 12.6196 3.35425C12.2559 3.43643 11.9189 3.60928 11.64 3.85672C11.3233 4.14859 11.0877 4.51762 10.9562 4.92776C10.8248 5.3379 10.802 5.77512 10.89 6.19672C10.9444 6.58102 11.0851 6.94801 11.3016 7.27014C11.5181 7.59228 11.8047 7.8612 12.14 8.05672C12.8511 8.47833 13.6995 8.60349 14.5021 8.40518C15.3046 8.20688 15.9971 7.70101 16.43 6.99672C16.6984 6.56564 16.8774 6.08503 16.9564 5.58342C17.0354 5.08181 17.0129 4.56943 16.89 4.07672ZM4.18 8.27672C4.66501 6.9875 4.66501 5.56595 4.18 4.27672C5.49324 4.78108 6.94676 4.78108 8.26 4.27672C7.77771 5.56644 7.77771 6.987 8.26 8.27672C6.94729 7.7695 5.49271 7.7695 4.18 8.27672Z"/>
</mask>
<path d="M16.89 4.07672C16.7778 3.58354 16.5677 3.11789 16.2723 2.70736C15.9768 2.29682 15.602 1.94976 15.17 1.68672C14.3259 1.17223 13.34 0.939504 12.3549 1.02219C11.3698 1.10489 10.4365 1.49871 9.69 2.14672C9.65034 2.16066 9.61319 2.18092 9.58 2.20672L8.66 2.99672C7.75832 3.55791 6.69315 3.79717 5.63809 3.6755C4.58303 3.55383 3.60028 3.07841 2.85 2.32672L1.85 1.32672C1.75654 1.23511 1.63088 1.18379 1.5 1.18379C1.36912 1.18379 1.24346 1.23511 1.15 1.32672C1.05902 1.41716 1.00546 1.53856 1 1.66672C1.00696 1.79161 1.06048 1.90936 1.15 1.99672L2.15 2.99672C2.89365 3.73837 3.36684 4.70817 3.49376 5.75074C3.62069 6.79331 3.39399 7.84831 2.85 8.74672L1.94 9.90672C1.55697 10.4147 1.28446 10.9972 1.14 11.6167C0.995896 12.213 0.971187 12.8318 1.0673 13.4377C1.16341 14.0435 1.37844 14.6243 1.7 15.1467C1.96434 15.5776 2.3118 15.9516 2.72212 16.2469C3.13245 16.5422 3.59744 16.7529 4.09 16.8667C4.38602 16.9512 4.69217 16.9949 5 16.9967C5.70685 16.9975 6.39974 16.8 7 16.4267C7.70765 15.997 8.2177 15.306 8.41981 14.5032C8.62192 13.7004 8.49985 12.8502 8.08 12.1367C7.87964 11.8014 7.60683 11.5151 7.28154 11.2988C6.95626 11.0826 6.58673 10.9418 6.2 10.8867C5.78552 10.7995 5.35561 10.8199 4.95123 10.9459C4.54686 11.0719 4.18151 11.2994 3.89 11.6067C3.6473 11.8884 3.47751 12.2254 3.39556 12.5881C3.3136 12.9508 3.322 13.328 3.42 13.6867C3.45713 13.8193 3.54542 13.9318 3.66544 13.9993C3.78546 14.0668 3.92739 14.0839 4.06 14.0467C4.19261 14.0096 4.30504 13.9213 4.37255 13.8013C4.44006 13.6813 4.45713 13.5393 4.42 13.4067C4.36619 13.2116 4.36178 13.0061 4.40717 12.8089C4.45256 12.6116 4.54632 12.4287 4.68 12.2767C4.86072 12.0941 5.08507 11.9605 5.33181 11.8888C5.57854 11.817 5.83951 11.8094 6.09 11.8667C6.32559 11.9054 6.55014 11.9942 6.74852 12.127C6.9469 12.2598 7.11449 12.4336 7.24 12.6367C7.5248 13.1264 7.60683 13.708 7.46856 14.2574C7.33029 14.8067 6.98268 15.2802 6.5 15.5767C6.18248 15.7741 5.82865 15.9058 5.45939 15.9642C5.09013 16.0226 4.71292 16.0065 4.35 15.9167C3.98667 15.8333 3.64373 15.678 3.34145 15.4599C3.03916 15.2417 2.78364 14.9653 2.59 14.6467C2.3356 14.236 2.16482 13.779 2.08744 13.3021C2.01007 12.8251 2.02764 12.3376 2.13913 11.8675C2.25062 11.3974 2.45385 10.9539 2.73714 10.5625C3.02044 10.1711 3.37824 9.83951 3.79 9.58672C4.69015 9.02631 5.75363 8.78745 6.80697 8.90913C7.86031 9.03081 8.84133 9.50584 9.59 10.2567L11.59 12.2567C11.6349 12.3046 11.6891 12.3427 11.7493 12.3687C11.8095 12.3948 11.8744 12.4082 11.94 12.4082C12.0056 12.4082 12.0705 12.3948 12.1307 12.3687C12.1909 12.3427 12.2451 12.3046 12.29 12.2567C12.3378 12.2118 12.376 12.1576 12.402 12.0974C12.4281 12.0372 12.4415 11.9723 12.4415 11.9067C12.4415 11.8411 12.4281 11.7762 12.402 11.716C12.376 11.6558 12.3378 11.6016 12.29 11.5567L10.29 9.55672C9.54071 8.80711 9.06679 7.82625 8.94516 6.77338C8.82354 5.7205 9.06135 4.65742 9.62 3.75672C10.1324 2.92718 10.953 2.33488 11.9017 2.10989C12.8505 1.8849 13.8497 2.04561 14.68 2.55672C14.9985 2.75037 15.275 3.00588 15.4932 3.30817C15.7113 3.61046 15.8666 3.95339 15.95 4.31672C16.0397 4.67964 16.0559 5.05686 15.9975 5.42611C15.9391 5.79537 15.8073 6.1492 15.61 6.46672C15.3135 6.94941 14.84 7.29701 14.2907 7.43528C13.7413 7.57355 13.1597 7.49152 12.67 7.20672C12.4669 7.08121 12.2931 6.91362 12.1603 6.71524C12.0274 6.51686 11.9387 6.29231 11.9 6.05672C11.8427 5.80623 11.8503 5.54527 11.9221 5.29853C11.9938 5.05179 12.1273 4.82744 12.31 4.64672C12.462 4.51304 12.6449 4.41928 12.8421 4.3739C13.0394 4.32851 13.2449 4.33291 13.44 4.38672C13.5726 4.42385 13.7145 4.40678 13.8346 4.33927C13.9546 4.27176 14.0429 4.15933 14.08 4.02672C14.1171 3.89411 14.1001 3.75219 14.0325 3.63216C13.965 3.51214 13.8526 3.42385 13.72 3.38672C13.3618 3.28325 12.9832 3.27208 12.6196 3.35425C12.2559 3.43643 11.9189 3.60928 11.64 3.85672C11.3233 4.14859 11.0877 4.51762 10.9562 4.92776C10.8248 5.3379 10.802 5.77512 10.89 6.19672C10.9444 6.58102 11.0851 6.94801 11.3016 7.27014C11.5181 7.59228 11.8047 7.8612 12.14 8.05672C12.8511 8.47833 13.6995 8.60349 14.5021 8.40518C15.3046 8.20688 15.9971 7.70101 16.43 6.99672C16.6984 6.56564 16.8774 6.08503 16.9564 5.58342C17.0354 5.08181 17.0129 4.56943 16.89 4.07672ZM4.18 8.27672C4.66501 6.9875 4.66501 5.56595 4.18 4.27672C5.49324 4.78108 6.94676 4.78108 8.26 4.27672C7.77771 5.56644 7.77771 6.987 8.26 8.27672C6.94729 7.7695 5.49271 7.7695 4.18 8.27672Z" stroke="#E0E0E0" stroke-width="2" mask="url(#path-1-inside-1)"/>
<mask id="path-2-inside-2" fill="white">
<path d="M446.932 16.89C447.425 16.7778 447.891 16.5677 448.301 16.2723C448.712 15.9768 449.059 15.602 449.322 15.17C449.836 14.3259 450.069 13.34 449.986 12.3549C449.904 11.3698 449.51 10.4365 448.862 9.69C448.848 9.65034 448.827 9.61319 448.802 9.58L448.012 8.66C447.451 7.75832 447.211 6.69315 447.333 5.63809C447.455 4.58303 447.93 3.60028 448.682 2.85L449.682 1.85C449.773 1.75654 449.825 1.63088 449.825 1.5C449.825 1.36912 449.773 1.24346 449.682 1.15C449.591 1.05902 449.47 1.00546 449.342 1C449.217 1.00696 449.099 1.06048 449.012 1.15L448.012 2.15C447.27 2.89365 446.3 3.36684 445.258 3.49376C444.215 3.62069 443.16 3.39399 442.262 2.85L441.102 1.94C440.594 1.55697 440.011 1.28446 439.392 1.14C438.795 0.995895 438.177 0.971186 437.571 1.0673C436.965 1.16341 436.384 1.37844 435.862 1.7C435.431 1.96434 435.057 2.3118 434.761 2.72212C434.466 3.13245 434.255 3.59744 434.142 4.09C434.057 4.38602 434.014 4.69217 434.012 5C434.011 5.70685 434.208 6.39974 434.582 7C435.011 7.70765 435.702 8.2177 436.505 8.41981C437.308 8.62192 438.158 8.49985 438.872 8.08C439.207 7.87964 439.493 7.60683 439.71 7.28154C439.926 6.95626 440.067 6.58673 440.122 6.2C440.209 5.78552 440.189 5.35561 440.063 4.95123C439.936 4.54686 439.709 4.18151 439.402 3.89C439.12 3.6473 438.783 3.47751 438.42 3.39556C438.058 3.3136 437.68 3.322 437.322 3.42C437.189 3.45713 437.077 3.54542 437.009 3.66544C436.942 3.78546 436.925 3.92739 436.962 4.06C436.999 4.19261 437.087 4.30503 437.207 4.37255C437.327 4.44006 437.469 4.45713 437.602 4.42C437.797 4.36619 438.002 4.36178 438.2 4.40717C438.397 4.45256 438.58 4.54632 438.732 4.68C438.914 4.86072 439.048 5.08507 439.12 5.33181C439.191 5.57854 439.199 5.83951 439.142 6.09C439.103 6.32559 439.014 6.55014 438.881 6.74852C438.749 6.9469 438.575 7.11449 438.372 7.24C437.882 7.5248 437.3 7.60683 436.751 7.46856C436.202 7.33029 435.728 6.98268 435.432 6.5C435.234 6.18248 435.103 5.82865 435.044 5.45939C434.986 5.09013 435.002 4.71292 435.092 4.35C435.175 3.98667 435.33 3.64373 435.549 3.34144C435.767 3.03916 436.043 2.78364 436.362 2.59C436.772 2.3356 437.229 2.16482 437.706 2.08744C438.183 2.01007 438.671 2.02764 439.141 2.13913C439.611 2.25062 440.055 2.45385 440.446 2.73714C440.837 3.02044 441.169 3.37824 441.422 3.79C441.982 4.69015 442.221 5.75363 442.099 6.80697C441.978 7.86031 441.503 8.84133 440.752 9.59L438.752 11.59C438.704 11.6349 438.666 11.6891 438.64 11.7493C438.614 11.8095 438.6 11.8744 438.6 11.94C438.6 12.0056 438.614 12.0705 438.64 12.1307C438.666 12.1909 438.704 12.2451 438.752 12.29C438.797 12.3378 438.851 12.376 438.911 12.402C438.971 12.4281 439.036 12.4415 439.102 12.4415C439.167 12.4415 439.232 12.4281 439.292 12.402C439.353 12.376 439.407 12.3378 439.452 12.29L441.452 10.29C442.201 9.54071 443.182 9.06679 444.235 8.94516C445.288 8.82354 446.351 9.06135 447.252 9.62C448.081 10.1324 448.674 10.953 448.899 11.9017C449.124 12.8505 448.963 13.8497 448.452 14.68C448.258 14.9985 448.003 15.275 447.7 15.4932C447.398 15.7113 447.055 15.8666 446.692 15.95C446.329 16.0397 445.952 16.0559 445.582 15.9975C445.213 15.9391 444.859 15.8073 444.542 15.61C444.059 15.3135 443.711 14.84 443.573 14.2907C443.435 13.7413 443.517 13.1597 443.802 12.67C443.927 12.4669 444.095 12.2931 444.293 12.1603C444.492 12.0274 444.716 11.9387 444.952 11.9C445.202 11.8427 445.463 11.8503 445.71 11.9221C445.957 11.9938 446.181 12.1273 446.362 12.31C446.495 12.462 446.589 12.6449 446.635 12.8421C446.68 13.0394 446.676 13.2449 446.622 13.44C446.585 13.5726 446.602 13.7145 446.669 13.8346C446.737 13.9546 446.849 14.0429 446.982 14.08C447.114 14.1171 447.256 14.1001 447.376 14.0325C447.496 13.965 447.585 13.8526 447.622 13.72C447.725 13.3618 447.736 12.9832 447.654 12.6196C447.572 12.2559 447.399 11.9189 447.152 11.64C446.86 11.3233 446.491 11.0877 446.081 10.9562C445.671 10.8248 445.233 10.802 444.812 10.89C444.427 10.9444 444.06 11.0851 443.738 11.3016C443.416 11.5181 443.147 11.8047 442.952 12.14C442.53 12.8511 442.405 13.6995 442.603 14.5021C442.802 15.3046 443.307 15.9971 444.012 16.43C444.443 16.6984 444.923 16.8774 445.425 16.9564C445.927 17.0354 446.439 17.0129 446.932 16.89ZM442.732 4.18C444.021 4.66501 445.442 4.66501 446.732 4.18C446.227 5.49324 446.227 6.94676 446.732 8.26C445.442 7.77771 444.021 7.77771 442.732 8.26C443.239 6.94729 443.239 5.49271 442.732 4.18Z"/>
</mask>
<path d="M446.932 16.89C447.425 16.7778 447.891 16.5677 448.301 16.2723C448.712 15.9768 449.059 15.602 449.322 15.17C449.836 14.3259 450.069 13.34 449.986 12.3549C449.904 11.3698 449.51 10.4365 448.862 9.69C448.848 9.65034 448.827 9.61319 448.802 9.58L448.012 8.66C447.451 7.75832 447.211 6.69315 447.333 5.63809C447.455 4.58303 447.93 3.60028 448.682 2.85L449.682 1.85C449.773 1.75654 449.825 1.63088 449.825 1.5C449.825 1.36912 449.773 1.24346 449.682 1.15C449.591 1.05902 449.47 1.00546 449.342 1C449.217 1.00696 449.099 1.06048 449.012 1.15L448.012 2.15C447.27 2.89365 446.3 3.36684 445.258 3.49376C444.215 3.62069 443.16 3.39399 442.262 2.85L441.102 1.94C440.594 1.55697 440.011 1.28446 439.392 1.14C438.795 0.995895 438.177 0.971186 437.571 1.0673C436.965 1.16341 436.384 1.37844 435.862 1.7C435.431 1.96434 435.057 2.3118 434.761 2.72212C434.466 3.13245 434.255 3.59744 434.142 4.09C434.057 4.38602 434.014 4.69217 434.012 5C434.011 5.70685 434.208 6.39974 434.582 7C435.011 7.70765 435.702 8.2177 436.505 8.41981C437.308 8.62192 438.158 8.49985 438.872 8.08C439.207 7.87964 439.493 7.60683 439.71 7.28154C439.926 6.95626 440.067 6.58673 440.122 6.2C440.209 5.78552 440.189 5.35561 440.063 4.95123C439.936 4.54686 439.709 4.18151 439.402 3.89C439.12 3.6473 438.783 3.47751 438.42 3.39556C438.058 3.3136 437.68 3.322 437.322 3.42C437.189 3.45713 437.077 3.54542 437.009 3.66544C436.942 3.78546 436.925 3.92739 436.962 4.06C436.999 4.19261 437.087 4.30503 437.207 4.37255C437.327 4.44006 437.469 4.45713 437.602 4.42C437.797 4.36619 438.002 4.36178 438.2 4.40717C438.397 4.45256 438.58 4.54632 438.732 4.68C438.914 4.86072 439.048 5.08507 439.12 5.33181C439.191 5.57854 439.199 5.83951 439.142 6.09C439.103 6.32559 439.014 6.55014 438.881 6.74852C438.749 6.9469 438.575 7.11449 438.372 7.24C437.882 7.5248 437.3 7.60683 436.751 7.46856C436.202 7.33029 435.728 6.98268 435.432 6.5C435.234 6.18248 435.103 5.82865 435.044 5.45939C434.986 5.09013 435.002 4.71292 435.092 4.35C435.175 3.98667 435.33 3.64373 435.549 3.34144C435.767 3.03916 436.043 2.78364 436.362 2.59C436.772 2.3356 437.229 2.16482 437.706 2.08744C438.183 2.01007 438.671 2.02764 439.141 2.13913C439.611 2.25062 440.055 2.45385 440.446 2.73714C440.837 3.02044 441.169 3.37824 441.422 3.79C441.982 4.69015 442.221 5.75363 442.099 6.80697C441.978 7.86031 441.503 8.84133 440.752 9.59L438.752 11.59C438.704 11.6349 438.666 11.6891 438.64 11.7493C438.614 11.8095 438.6 11.8744 438.6 11.94C438.6 12.0056 438.614 12.0705 438.64 12.1307C438.666 12.1909 438.704 12.2451 438.752 12.29C438.797 12.3378 438.851 12.376 438.911 12.402C438.971 12.4281 439.036 12.4415 439.102 12.4415C439.167 12.4415 439.232 12.4281 439.292 12.402C439.353 12.376 439.407 12.3378 439.452 12.29L441.452 10.29C442.201 9.54071 443.182 9.06679 444.235 8.94516C445.288 8.82354 446.351 9.06135 447.252 9.62C448.081 10.1324 448.674 10.953 448.899 11.9017C449.124 12.8505 448.963 13.8497 448.452 14.68C448.258 14.9985 448.003 15.275 447.7 15.4932C447.398 15.7113 447.055 15.8666 446.692 15.95C446.329 16.0397 445.952 16.0559 445.582 15.9975C445.213 15.9391 444.859 15.8073 444.542 15.61C444.059 15.3135 443.711 14.84 443.573 14.2907C443.435 13.7413 443.517 13.1597 443.802 12.67C443.927 12.4669 444.095 12.2931 444.293 12.1603C444.492 12.0274 444.716 11.9387 444.952 11.9C445.202 11.8427 445.463 11.8503 445.71 11.9221C445.957 11.9938 446.181 12.1273 446.362 12.31C446.495 12.462 446.589 12.6449 446.635 12.8421C446.68 13.0394 446.676 13.2449 446.622 13.44C446.585 13.5726 446.602 13.7145 446.669 13.8346C446.737 13.9546 446.849 14.0429 446.982 14.08C447.114 14.1171 447.256 14.1001 447.376 14.0325C447.496 13.965 447.585 13.8526 447.622 13.72C447.725 13.3618 447.736 12.9832 447.654 12.6196C447.572 12.2559 447.399 11.9189 447.152 11.64C446.86 11.3233 446.491 11.0877 446.081 10.9562C445.671 10.8248 445.233 10.802 444.812 10.89C444.427 10.9444 444.06 11.0851 443.738 11.3016C443.416 11.5181 443.147 11.8047 442.952 12.14C442.53 12.8511 442.405 13.6995 442.603 14.5021C442.802 15.3046 443.307 15.9971 444.012 16.43C444.443 16.6984 444.923 16.8774 445.425 16.9564C445.927 17.0354 446.439 17.0129 446.932 16.89ZM442.732 4.18C444.021 4.66501 445.442 4.66501 446.732 4.18C446.227 5.49324 446.227 6.94676 446.732 8.26C445.442 7.77771 444.021 7.77771 442.732 8.26C443.239 6.94729 443.239 5.49271 442.732 4.18Z" stroke="#E0E0E0" stroke-width="2" mask="url(#path-2-inside-2)"/>
<mask id="path-3-inside-3" fill="white">
<path d="M434.113 228.932C434.225 229.425 434.435 229.891 434.73 230.301C435.026 230.712 435.401 231.059 435.833 231.322C436.677 231.836 437.663 232.069 438.648 231.986C439.633 231.904 440.566 231.51 441.313 230.862C441.352 230.848 441.389 230.828 441.423 230.802L442.343 230.012C443.244 229.451 444.309 229.211 445.364 229.333C446.42 229.455 447.402 229.93 448.153 230.682L449.153 231.682C449.246 231.773 449.372 231.825 449.503 231.825C449.633 231.825 449.759 231.773 449.853 231.682C449.944 231.591 449.997 231.47 450.003 231.342C449.996 231.217 449.942 231.099 449.853 231.012L448.853 230.012C448.109 229.27 447.636 228.3 447.509 227.258C447.382 226.215 447.609 225.16 448.153 224.262L449.063 223.102C449.446 222.594 449.718 222.011 449.863 221.392C450.007 220.796 450.031 220.177 449.935 219.571C449.839 218.965 449.624 218.384 449.303 217.862C449.038 217.431 448.691 217.057 448.28 216.762C447.87 216.466 447.405 216.256 446.913 216.142C446.617 216.057 446.31 216.014 446.003 216.012C445.296 216.011 444.603 216.209 444.003 216.582C443.295 217.012 442.785 217.702 442.583 218.505C442.381 219.308 442.503 220.158 442.923 220.872C443.123 221.207 443.396 221.493 443.721 221.71C444.046 221.926 444.416 222.067 444.803 222.122C445.217 222.209 445.647 222.189 446.051 222.063C446.456 221.937 446.821 221.709 447.113 221.402C447.355 221.12 447.525 220.783 447.607 220.42C447.689 220.058 447.681 219.681 447.583 219.322C447.545 219.189 447.457 219.077 447.337 219.009C447.217 218.942 447.075 218.925 446.943 218.962C446.81 218.999 446.698 219.087 446.63 219.207C446.563 219.327 446.545 219.469 446.583 219.602C446.636 219.797 446.641 220.002 446.595 220.2C446.55 220.397 446.456 220.58 446.323 220.732C446.142 220.914 445.917 221.048 445.671 221.12C445.424 221.192 445.163 221.199 444.913 221.142C444.677 221.103 444.452 221.014 444.254 220.882C444.056 220.749 443.888 220.575 443.763 220.372C443.478 219.882 443.396 219.301 443.534 218.751C443.672 218.202 444.02 217.728 444.503 217.432C444.82 217.234 445.174 217.103 445.543 217.044C445.912 216.986 446.29 217.002 446.653 217.092C447.016 217.175 447.359 217.331 447.661 217.549C447.963 217.767 448.219 218.043 448.413 218.362C448.667 218.773 448.838 219.23 448.915 219.706C448.992 220.183 448.975 220.671 448.863 221.141C448.752 221.611 448.549 222.055 448.265 222.446C447.982 222.837 447.624 223.169 447.213 223.422C446.312 223.982 445.249 224.221 444.196 224.099C443.142 223.978 442.161 223.503 441.413 222.752L439.413 220.752C439.368 220.704 439.313 220.666 439.253 220.64C439.193 220.614 439.128 220.6 439.063 220.6C438.997 220.6 438.932 220.614 438.872 220.64C438.812 220.666 438.757 220.704 438.713 220.752C438.665 220.797 438.627 220.851 438.601 220.911C438.574 220.971 438.561 221.036 438.561 221.102C438.561 221.167 438.574 221.232 438.601 221.293C438.627 221.353 438.665 221.407 438.713 221.452L440.713 223.452C441.462 224.201 441.936 225.182 442.057 226.235C442.179 227.288 441.941 228.351 441.383 229.252C440.87 230.081 440.05 230.674 439.101 230.899C438.152 231.124 437.153 230.963 436.323 230.452C436.004 230.258 435.728 230.003 435.509 229.7C435.291 229.398 435.136 229.055 435.053 228.692C434.963 228.329 434.947 227.952 435.005 227.582C435.063 227.213 435.195 226.859 435.393 226.542C435.689 226.059 436.163 225.712 436.712 225.573C437.261 225.435 437.843 225.517 438.333 225.802C438.536 225.927 438.709 226.095 438.842 226.293C438.975 226.492 439.064 226.716 439.103 226.952C439.16 227.202 439.152 227.463 439.08 227.71C439.009 227.957 438.875 228.181 438.693 228.362C438.541 228.496 438.358 228.589 438.16 228.635C437.963 228.68 437.758 228.676 437.563 228.622C437.43 228.585 437.288 228.602 437.168 228.669C437.048 228.737 436.96 228.849 436.923 228.982C436.885 229.114 436.903 229.256 436.97 229.376C437.038 229.496 437.15 229.585 437.283 229.622C437.641 229.725 438.019 229.736 438.383 229.654C438.747 229.572 439.084 229.399 439.363 229.152C439.679 228.86 439.915 228.491 440.046 228.081C440.178 227.671 440.201 227.233 440.113 226.812C440.058 226.428 439.917 226.061 439.701 225.738C439.484 225.416 439.198 225.147 438.863 224.952C438.151 224.53 437.303 224.405 436.501 224.603C435.698 224.802 435.005 225.308 434.573 226.012C434.304 226.443 434.125 226.924 434.046 227.425C433.967 227.927 433.99 228.439 434.113 228.932ZM446.823 224.732C446.338 226.021 446.338 227.443 446.823 228.732C445.509 228.227 444.056 228.227 442.743 228.732C443.225 227.442 443.225 226.022 442.743 224.732C444.055 225.239 445.51 225.239 446.823 224.732Z"/>
</mask>
<path d="M434.113 228.932C434.225 229.425 434.435 229.891 434.73 230.301C435.026 230.712 435.401 231.059 435.833 231.322C436.677 231.836 437.663 232.069 438.648 231.986C439.633 231.904 440.566 231.51 441.313 230.862C441.352 230.848 441.389 230.828 441.423 230.802L442.343 230.012C443.244 229.451 444.309 229.211 445.364 229.333C446.42 229.455 447.402 229.93 448.153 230.682L449.153 231.682C449.246 231.773 449.372 231.825 449.503 231.825C449.633 231.825 449.759 231.773 449.853 231.682C449.944 231.591 449.997 231.47 450.003 231.342C449.996 231.217 449.942 231.099 449.853 231.012L448.853 230.012C448.109 229.27 447.636 228.3 447.509 227.258C447.382 226.215 447.609 225.16 448.153 224.262L449.063 223.102C449.446 222.594 449.718 222.011 449.863 221.392C450.007 220.796 450.031 220.177 449.935 219.571C449.839 218.965 449.624 218.384 449.303 217.862C449.038 217.431 448.691 217.057 448.28 216.762C447.87 216.466 447.405 216.256 446.913 216.142C446.617 216.057 446.31 216.014 446.003 216.012C445.296 216.011 444.603 216.209 444.003 216.582C443.295 217.012 442.785 217.702 442.583 218.505C442.381 219.308 442.503 220.158 442.923 220.872C443.123 221.207 443.396 221.493 443.721 221.71C444.046 221.926 444.416 222.067 444.803 222.122C445.217 222.209 445.647 222.189 446.051 222.063C446.456 221.937 446.821 221.709 447.113 221.402C447.355 221.12 447.525 220.783 447.607 220.42C447.689 220.058 447.681 219.681 447.583 219.322C447.545 219.189 447.457 219.077 447.337 219.009C447.217 218.942 447.075 218.925 446.943 218.962C446.81 218.999 446.698 219.087 446.63 219.207C446.563 219.327 446.545 219.469 446.583 219.602C446.636 219.797 446.641 220.002 446.595 220.2C446.55 220.397 446.456 220.58 446.323 220.732C446.142 220.914 445.917 221.048 445.671 221.12C445.424 221.192 445.163 221.199 444.913 221.142C444.677 221.103 444.452 221.014 444.254 220.882C444.056 220.749 443.888 220.575 443.763 220.372C443.478 219.882 443.396 219.301 443.534 218.751C443.672 218.202 444.02 217.728 444.503 217.432C444.82 217.234 445.174 217.103 445.543 217.044C445.912 216.986 446.29 217.002 446.653 217.092C447.016 217.175 447.359 217.331 447.661 217.549C447.963 217.767 448.219 218.043 448.413 218.362C448.667 218.773 448.838 219.23 448.915 219.706C448.992 220.183 448.975 220.671 448.863 221.141C448.752 221.611 448.549 222.055 448.265 222.446C447.982 222.837 447.624 223.169 447.213 223.422C446.312 223.982 445.249 224.221 444.196 224.099C443.142 223.978 442.161 223.503 441.413 222.752L439.413 220.752C439.368 220.704 439.313 220.666 439.253 220.64C439.193 220.614 439.128 220.6 439.063 220.6C438.997 220.6 438.932 220.614 438.872 220.64C438.812 220.666 438.757 220.704 438.713 220.752C438.665 220.797 438.627 220.851 438.601 220.911C438.574 220.971 438.561 221.036 438.561 221.102C438.561 221.167 438.574 221.232 438.601 221.293C438.627 221.353 438.665 221.407 438.713 221.452L440.713 223.452C441.462 224.201 441.936 225.182 442.057 226.235C442.179 227.288 441.941 228.351 441.383 229.252C440.87 230.081 440.05 230.674 439.101 230.899C438.152 231.124 437.153 230.963 436.323 230.452C436.004 230.258 435.728 230.003 435.509 229.7C435.291 229.398 435.136 229.055 435.053 228.692C434.963 228.329 434.947 227.952 435.005 227.582C435.063 227.213 435.195 226.859 435.393 226.542C435.689 226.059 436.163 225.712 436.712 225.573C437.261 225.435 437.843 225.517 438.333 225.802C438.536 225.927 438.709 226.095 438.842 226.293C438.975 226.492 439.064 226.716 439.103 226.952C439.16 227.202 439.152 227.463 439.08 227.71C439.009 227.957 438.875 228.181 438.693 228.362C438.541 228.496 438.358 228.589 438.16 228.635C437.963 228.68 437.758 228.676 437.563 228.622C437.43 228.585 437.288 228.602 437.168 228.669C437.048 228.737 436.96 228.849 436.923 228.982C436.885 229.114 436.903 229.256 436.97 229.376C437.038 229.496 437.15 229.585 437.283 229.622C437.641 229.725 438.019 229.736 438.383 229.654C438.747 229.572 439.084 229.399 439.363 229.152C439.679 228.86 439.915 228.491 440.046 228.081C440.178 227.671 440.201 227.233 440.113 226.812C440.058 226.428 439.917 226.061 439.701 225.738C439.484 225.416 439.198 225.147 438.863 224.952C438.151 224.53 437.303 224.405 436.501 224.603C435.698 224.802 435.005 225.308 434.573 226.012C434.304 226.443 434.125 226.924 434.046 227.425C433.967 227.927 433.99 228.439 434.113 228.932ZM446.823 224.732C446.338 226.021 446.338 227.443 446.823 228.732C445.509 228.227 444.056 228.227 442.743 228.732C443.225 227.442 443.225 226.022 442.743 224.732C444.055 225.239 445.51 225.239 446.823 224.732Z" stroke="#E0E0E0" stroke-width="2" mask="url(#path-3-inside-3)"/>
<mask id="path-4-inside-4" fill="white">
<path d="M4.07087 216.118C3.57768 216.231 3.11203 216.441 2.7015 216.736C2.29097 217.031 1.9439 217.406 1.68086 217.838C1.16637 218.682 0.933647 219.668 1.01634 220.653C1.09903 221.638 1.49285 222.572 2.14086 223.318C2.1548 223.358 2.17507 223.395 2.20086 223.428L2.99086 224.348C3.55205 225.25 3.79131 226.315 3.66964 227.37C3.54797 228.425 3.07255 229.408 2.32086 230.158L1.32086 231.158C1.22925 231.252 1.17793 231.377 1.17793 231.508C1.17793 231.639 1.22925 231.765 1.32086 231.858C1.4113 231.949 1.5327 232.003 1.66086 232.008C1.78575 232.001 1.9035 231.948 1.99086 231.858L2.99086 230.858C3.73251 230.115 4.70231 229.641 5.74488 229.515C6.78745 229.388 7.84246 229.614 8.74086 230.158L9.90086 231.068C10.4088 231.451 10.9913 231.724 11.6109 231.868C12.2071 232.012 12.826 232.037 13.4318 231.941C14.0377 231.845 14.6185 231.63 15.1409 231.308C15.5718 231.044 15.9458 230.697 16.2411 230.286C16.5364 229.876 16.7471 229.411 16.8609 228.918C16.9453 228.622 16.989 228.316 16.9909 228.008C16.9916 227.301 16.7941 226.609 16.4209 226.008C15.9912 225.301 15.3002 224.791 14.4974 224.588C13.6945 224.386 12.8444 224.508 12.1309 224.928C11.7955 225.129 11.5093 225.401 11.293 225.727C11.0767 226.052 10.9359 226.422 10.8809 226.808C10.7936 227.223 10.814 227.653 10.94 228.057C11.0661 228.461 11.2936 228.827 11.6009 229.118C11.8826 229.361 12.2196 229.531 12.5822 229.613C12.9449 229.695 13.3222 229.686 13.6809 229.588C13.8135 229.551 13.9259 229.463 13.9934 229.343C14.0609 229.223 14.078 229.081 14.0409 228.948C14.0037 228.816 13.9154 228.703 13.7954 228.636C13.6754 228.568 13.5335 228.551 13.4009 228.588C13.2057 228.642 13.0003 228.647 12.803 228.601C12.6057 228.556 12.4229 228.462 12.2709 228.328C12.0882 228.148 11.9547 227.923 11.8829 227.676C11.8112 227.43 11.8036 227.169 11.8609 226.918C11.8996 226.683 11.9883 226.458 12.1211 226.26C12.254 226.061 12.4278 225.894 12.6309 225.768C13.1205 225.484 13.7022 225.401 14.2515 225.54C14.8009 225.678 15.2744 226.026 15.5709 226.508C15.7682 226.826 15.8999 227.18 15.9583 227.549C16.0167 227.918 16.0006 228.295 15.9109 228.658C15.8275 229.022 15.6721 229.365 15.454 229.667C15.2359 229.969 14.9594 230.225 14.6409 230.418C14.2301 230.673 13.7731 230.843 13.2962 230.921C12.8193 230.998 12.3318 230.981 11.8616 230.869C11.3915 230.758 10.948 230.554 10.5566 230.271C10.1652 229.988 9.83365 229.63 9.58086 229.218C9.02045 228.318 8.7816 227.255 8.90327 226.201C9.02495 225.148 9.49998 224.167 10.2509 223.418L12.2509 221.418C12.2987 221.373 12.3368 221.319 12.3629 221.259C12.3889 221.199 12.4024 221.134 12.4024 221.068C12.4024 221.003 12.3889 220.938 12.3629 220.878C12.3368 220.817 12.2987 220.763 12.2509 220.718C12.206 220.67 12.1518 220.632 12.0916 220.606C12.0314 220.58 11.9665 220.567 11.9009 220.567C11.8353 220.567 11.7704 220.58 11.7102 220.606C11.65 220.632 11.5958 220.67 11.5509 220.718L9.55086 222.718C8.80126 223.468 7.8204 223.942 6.76752 224.063C5.71464 224.185 4.65156 223.947 3.75086 223.388C2.92132 222.876 2.32902 222.055 2.10403 221.107C1.87904 220.158 2.03975 219.159 2.55086 218.328C2.74451 218.01 3.00002 217.733 3.30231 217.515C3.6046 217.297 3.94754 217.142 4.31086 217.058C4.67378 216.969 5.051 216.952 5.42026 217.011C5.78952 217.069 6.14334 217.201 6.46086 217.398C6.94355 217.695 7.29115 218.168 7.42942 218.718C7.56769 219.267 7.48567 219.849 7.20086 220.338C7.07536 220.541 6.90776 220.715 6.70938 220.848C6.511 220.981 6.28645 221.07 6.05086 221.108C5.80037 221.166 5.53941 221.158 5.29267 221.086C5.04593 221.014 4.82159 220.881 4.64086 220.698C4.50718 220.546 4.41343 220.363 4.36804 220.166C4.32265 219.969 4.32706 219.763 4.38086 219.568C4.418 219.436 4.40093 219.294 4.33341 219.174C4.2659 219.054 4.15347 218.965 4.02086 218.928C3.88826 218.891 3.74633 218.908 3.62631 218.976C3.50628 219.043 3.418 219.156 3.38086 219.288C3.27739 219.647 3.26622 220.025 3.3484 220.389C3.43057 220.752 3.60343 221.089 3.85086 221.368C4.14274 221.685 4.51177 221.921 4.9219 222.052C5.33204 222.184 5.76927 222.206 6.19086 222.118C6.57516 222.064 6.94215 221.923 7.26429 221.707C7.58642 221.49 7.85534 221.204 8.05086 220.868C8.47247 220.157 8.59763 219.309 8.39932 218.506C8.20102 217.704 7.69515 217.011 6.99086 216.578C6.55979 216.31 6.07917 216.131 5.57756 216.052C5.07595 215.973 4.56358 215.995 4.07087 216.118ZM8.27086 228.828C6.98164 228.343 5.56009 228.343 4.27086 228.828C4.77522 227.515 4.77522 226.062 4.27086 224.748C5.56058 225.231 6.98114 225.231 8.27086 224.748C7.76364 226.061 7.76364 227.516 8.27086 228.828Z"/>
</mask>
<path d="M4.07087 216.118C3.57768 216.231 3.11203 216.441 2.7015 216.736C2.29097 217.031 1.9439 217.406 1.68086 217.838C1.16637 218.682 0.933647 219.668 1.01634 220.653C1.09903 221.638 1.49285 222.572 2.14086 223.318C2.1548 223.358 2.17507 223.395 2.20086 223.428L2.99086 224.348C3.55205 225.25 3.79131 226.315 3.66964 227.37C3.54797 228.425 3.07255 229.408 2.32086 230.158L1.32086 231.158C1.22925 231.252 1.17793 231.377 1.17793 231.508C1.17793 231.639 1.22925 231.765 1.32086 231.858C1.4113 231.949 1.5327 232.003 1.66086 232.008C1.78575 232.001 1.9035 231.948 1.99086 231.858L2.99086 230.858C3.73251 230.115 4.70231 229.641 5.74488 229.515C6.78745 229.388 7.84246 229.614 8.74086 230.158L9.90086 231.068C10.4088 231.451 10.9913 231.724 11.6109 231.868C12.2071 232.012 12.826 232.037 13.4318 231.941C14.0377 231.845 14.6185 231.63 15.1409 231.308C15.5718 231.044 15.9458 230.697 16.2411 230.286C16.5364 229.876 16.7471 229.411 16.8609 228.918C16.9453 228.622 16.989 228.316 16.9909 228.008C16.9916 227.301 16.7941 226.609 16.4209 226.008C15.9912 225.301 15.3002 224.791 14.4974 224.588C13.6945 224.386 12.8444 224.508 12.1309 224.928C11.7955 225.129 11.5093 225.401 11.293 225.727C11.0767 226.052 10.9359 226.422 10.8809 226.808C10.7936 227.223 10.814 227.653 10.94 228.057C11.0661 228.461 11.2936 228.827 11.6009 229.118C11.8826 229.361 12.2196 229.531 12.5822 229.613C12.9449 229.695 13.3222 229.686 13.6809 229.588C13.8135 229.551 13.9259 229.463 13.9934 229.343C14.0609 229.223 14.078 229.081 14.0409 228.948C14.0037 228.816 13.9154 228.703 13.7954 228.636C13.6754 228.568 13.5335 228.551 13.4009 228.588C13.2057 228.642 13.0003 228.647 12.803 228.601C12.6057 228.556 12.4229 228.462 12.2709 228.328C12.0882 228.148 11.9547 227.923 11.8829 227.676C11.8112 227.43 11.8036 227.169 11.8609 226.918C11.8996 226.683 11.9883 226.458 12.1211 226.26C12.254 226.061 12.4278 225.894 12.6309 225.768C13.1205 225.484 13.7022 225.401 14.2515 225.54C14.8009 225.678 15.2744 226.026 15.5709 226.508C15.7682 226.826 15.8999 227.18 15.9583 227.549C16.0167 227.918 16.0006 228.295 15.9109 228.658C15.8275 229.022 15.6721 229.365 15.454 229.667C15.2359 229.969 14.9594 230.225 14.6409 230.418C14.2301 230.673 13.7731 230.843 13.2962 230.921C12.8193 230.998 12.3318 230.981 11.8616 230.869C11.3915 230.758 10.948 230.554 10.5566 230.271C10.1652 229.988 9.83365 229.63 9.58086 229.218C9.02045 228.318 8.7816 227.255 8.90327 226.201C9.02495 225.148 9.49998 224.167 10.2509 223.418L12.2509 221.418C12.2987 221.373 12.3368 221.319 12.3629 221.259C12.3889 221.199 12.4024 221.134 12.4024 221.068C12.4024 221.003 12.3889 220.938 12.3629 220.878C12.3368 220.817 12.2987 220.763 12.2509 220.718C12.206 220.67 12.1518 220.632 12.0916 220.606C12.0314 220.58 11.9665 220.567 11.9009 220.567C11.8353 220.567 11.7704 220.58 11.7102 220.606C11.65 220.632 11.5958 220.67 11.5509 220.718L9.55086 222.718C8.80126 223.468 7.8204 223.942 6.76752 224.063C5.71464 224.185 4.65156 223.947 3.75086 223.388C2.92132 222.876 2.32902 222.055 2.10403 221.107C1.87904 220.158 2.03975 219.159 2.55086 218.328C2.74451 218.01 3.00002 217.733 3.30231 217.515C3.6046 217.297 3.94754 217.142 4.31086 217.058C4.67378 216.969 5.051 216.952 5.42026 217.011C5.78952 217.069 6.14334 217.201 6.46086 217.398C6.94355 217.695 7.29115 218.168 7.42942 218.718C7.56769 219.267 7.48567 219.849 7.20086 220.338C7.07536 220.541 6.90776 220.715 6.70938 220.848C6.511 220.981 6.28645 221.07 6.05086 221.108C5.80037 221.166 5.53941 221.158 5.29267 221.086C5.04593 221.014 4.82159 220.881 4.64086 220.698C4.50718 220.546 4.41343 220.363 4.36804 220.166C4.32265 219.969 4.32706 219.763 4.38086 219.568C4.418 219.436 4.40093 219.294 4.33341 219.174C4.2659 219.054 4.15347 218.965 4.02086 218.928C3.88826 218.891 3.74633 218.908 3.62631 218.976C3.50628 219.043 3.418 219.156 3.38086 219.288C3.27739 219.647 3.26622 220.025 3.3484 220.389C3.43057 220.752 3.60343 221.089 3.85086 221.368C4.14274 221.685 4.51177 221.921 4.9219 222.052C5.33204 222.184 5.76927 222.206 6.19086 222.118C6.57516 222.064 6.94215 221.923 7.26429 221.707C7.58642 221.49 7.85534 221.204 8.05086 220.868C8.47247 220.157 8.59763 219.309 8.39932 218.506C8.20102 217.704 7.69515 217.011 6.99086 216.578C6.55979 216.31 6.07917 216.131 5.57756 216.052C5.07595 215.973 4.56358 215.995 4.07087 216.118ZM8.27086 228.828C6.98164 228.343 5.56009 228.343 4.27086 228.828C4.77522 227.515 4.77522 226.062 4.27086 224.748C5.56058 225.231 6.98114 225.231 8.27086 224.748C7.76364 226.061 7.76364 227.516 8.27086 228.828Z" stroke="#E0E0E0" stroke-width="2" mask="url(#path-4-inside-4)"/>
<path d="M1.00001 27.5059L1.00001 205.506" stroke="#E0E0E0" stroke-linecap="round" stroke-linejoin="round"/>
<path d="M450.006 27.5059L450.006 205.506" stroke="#E0E0E0" stroke-linecap="round" stroke-linejoin="round"/>
<path d="M423.5 232.006L27.5 232.006" stroke="#E0E0E0" stroke-linecap="round" stroke-linejoin="round"/>
<path d="M423.5 1.00584L27.5 1.00582" stroke="#E0E0E0" stroke-linecap="round" stroke-linejoin="round"/>
</svg>
