<svg width="100" height="25" viewBox="0 0 100 25" fill="none" xmlns="http://www.w3.org/2000/svg">
<path d="M55.8201 24.4138H55.4701C54.6721 24.3768 53.8896 24.1809 53.1683 23.8374C52.4471 23.494 51.8017 23.01 51.2701 22.4138C49.9483 20.9305 49.2692 18.9833 49.3817 16.9997C49.4942 15.0161 50.3891 13.1582 51.8701 11.8338C53.1527 10.68 54.7342 9.91048 56.4337 9.61338C58.1332 9.31628 59.882 9.50357 61.4801 10.1538H61.5801C62.0263 10.3419 62.5057 10.4389 62.9901 10.4389C63.4744 10.4389 63.9538 10.3419 64.4001 10.1538C65.0794 9.85132 65.6124 9.29355 65.8837 8.60115C66.1551 7.90876 66.143 7.13738 65.8501 6.45383C65.7364 6.19489 65.5728 5.96091 65.3686 5.76529C65.1644 5.56967 64.9236 5.41626 64.6601 5.31383C64.3983 5.20057 64.1163 5.14131 63.8311 5.1396C63.5458 5.13788 63.2632 5.19374 63.0001 5.30383C62.8044 5.38973 62.6278 5.51347 62.4802 5.66793C62.3326 5.82239 62.217 6.00452 62.1401 6.20383C62.0584 6.39858 62.0163 6.60765 62.0163 6.81883C62.0163 7.03001 62.0584 7.23908 62.1401 7.43383C62.2021 7.57794 62.2919 7.70836 62.4045 7.81761C62.5171 7.92685 62.6502 8.01275 62.7961 8.07038C62.942 8.128 63.0979 8.1562 63.2547 8.15336C63.4116 8.15052 63.5663 8.1167 63.7101 8.05383C63.7702 8.02594 63.8354 8.01055 63.9017 8.0086C63.968 8.00665 64.034 8.01818 64.0957 8.04249C64.1574 8.06679 64.2136 8.10338 64.2607 8.15002C64.3079 8.19666 64.3451 8.25239 64.3701 8.31383C64.4242 8.43454 64.4282 8.57177 64.3814 8.69547C64.3345 8.81917 64.2406 8.91926 64.1201 8.97383C63.5817 9.1939 62.9784 9.1939 62.4401 8.97383C62.1706 8.86922 61.9248 8.71184 61.717 8.51092C61.5092 8.31001 61.3437 8.06961 61.2301 7.80383C61.0924 7.48937 61.0181 7.15085 61.0115 6.80765C61.0049 6.46445 61.066 6.12331 61.1914 5.80377C61.3168 5.48423 61.504 5.19257 61.7423 4.94548C61.9806 4.6984 62.2653 4.50074 62.5801 4.36383C62.9613 4.19082 63.3734 4.09605 63.7919 4.08514C64.2105 4.07423 64.6269 4.1474 65.0167 4.30032C65.4064 4.45323 65.7616 4.68279 66.061 4.9754C66.3605 5.26801 66.5982 5.61772 66.7601 6.00383C67.1546 6.93244 67.1657 7.97942 66.791 8.91619C66.4162 9.85296 65.6862 10.6035 64.7601 11.0038C64.1954 11.2519 63.5868 11.3841 62.9701 11.3927C62.3535 11.4013 61.7414 11.286 61.1701 11.0538H61.0601C59.6351 10.4723 58.0751 10.3046 56.5591 10.57C55.0431 10.8353 53.6328 11.5229 52.4901 12.5538C51.2136 13.7055 50.4454 15.3159 50.3536 17.0326C50.2617 18.7494 50.8538 20.4326 52.0001 21.7138C52.4458 22.2124 52.9853 22.6183 53.588 22.9083C54.1906 23.1982 54.8444 23.3666 55.5122 23.4037C56.1799 23.4409 56.8484 23.3461 57.4795 23.1248C58.1105 22.9034 58.6918 22.5599 59.1901 22.1138C59.9702 21.4086 60.4411 20.4244 60.501 19.3745C60.5609 18.3245 60.2049 17.2932 59.5101 16.5038C59.2409 16.2017 58.9149 15.9555 58.5506 15.7794C58.1863 15.6033 57.7908 15.5007 57.3869 15.4775C56.9829 15.4543 56.5783 15.5109 56.1962 15.6441C55.8141 15.7773 55.462 15.9845 55.1601 16.2538C55.1123 16.3025 55.0552 16.3409 54.9921 16.3666C54.929 16.3924 54.8613 16.4049 54.7931 16.4036C54.725 16.4022 54.6578 16.3869 54.5958 16.3587C54.5338 16.3304 54.4782 16.2898 54.4325 16.2393C54.3867 16.1888 54.3518 16.1294 54.3298 16.0649C54.3079 16.0004 54.2993 15.9321 54.3047 15.8641C54.3101 15.7962 54.3293 15.7301 54.3612 15.6698C54.3931 15.6096 54.4369 15.5565 54.4901 15.5138C55.2964 14.7926 56.3562 14.4212 57.4363 14.4812C58.5165 14.5412 59.5286 15.0278 60.2501 15.8338C61.116 16.8187 61.5604 18.1043 61.4874 19.4136C61.4145 20.723 60.8301 21.9513 59.8601 22.8338C58.7525 23.8377 57.3148 24.4 55.8201 24.4138Z" fill="#BDBDBD"/>
<path d="M43.91 24.4139C42.4123 24.4131 40.9672 23.8614 39.85 22.8639C38.88 21.9813 38.2956 20.753 38.2226 19.4437C38.1497 18.1343 38.5941 16.8487 39.46 15.8639C40.1815 15.0578 41.1936 14.5712 42.2738 14.5112C43.3539 14.4512 44.4137 14.8227 45.22 15.5439C45.2732 15.5865 45.317 15.6396 45.3489 15.6998C45.3808 15.7601 45.4 15.8262 45.4054 15.8941C45.4108 15.9621 45.4022 16.0304 45.3803 16.0949C45.3583 16.1594 45.3234 16.2188 45.2776 16.2693C45.2319 16.3198 45.1763 16.3605 45.1143 16.3887C45.0522 16.417 44.9851 16.4322 44.917 16.4336C44.8488 16.435 44.7811 16.4224 44.718 16.3966C44.6549 16.3709 44.5978 16.3325 44.55 16.2839C44.2481 16.0145 43.896 15.8073 43.5139 15.6741C43.1318 15.5409 42.7272 15.4843 42.3232 15.5075C41.9193 15.5307 41.5238 15.6333 41.1595 15.8094C40.7952 15.9855 40.4692 16.2317 40.2 16.5339C39.5052 17.3233 39.1492 18.3546 39.2091 19.4045C39.269 20.4545 39.7399 21.4386 40.52 22.1439C41.0181 22.5891 41.6004 22.93 42.2325 23.1464C42.8645 23.3628 43.5336 23.4503 44.2 23.4039C44.8676 23.3675 45.5214 23.1995 46.1238 22.9094C46.7262 22.6194 47.2653 22.2131 47.71 21.7139C48.857 20.4295 49.4474 18.7426 49.3518 17.0234C49.2562 15.3041 48.4823 13.6931 47.2 12.5439C46.0615 11.5063 44.6531 10.8113 43.137 10.5388C41.6208 10.2664 40.0586 10.4276 38.63 11.0039H38.53C37.9569 11.2358 37.3432 11.3508 36.725 11.3423C36.1068 11.3337 35.4965 11.2016 34.93 10.9539C34.0039 10.5535 33.2738 9.80299 32.8991 8.86621C32.5244 7.92944 32.5355 6.88246 32.93 5.95385C33.0941 5.57447 33.3316 5.23132 33.6289 4.94423C33.9263 4.65713 34.2776 4.43177 34.6625 4.28116C35.0474 4.13054 35.4583 4.05765 35.8715 4.0667C36.2847 4.07574 36.6921 4.16654 37.07 4.33385C37.3848 4.47076 37.6695 4.66842 37.9078 4.9155C38.1461 5.16259 38.3333 5.45426 38.4587 5.7738C38.5841 6.09333 38.6452 6.43447 38.6386 6.77767C38.6319 7.12087 38.5577 7.45939 38.42 7.77385C38.3177 8.04698 38.1613 8.29667 37.9603 8.50801C37.7593 8.71935 37.5177 8.88799 37.25 9.00385C36.7117 9.22393 36.1084 9.22393 35.57 9.00385C35.4495 8.94929 35.3556 8.84919 35.3087 8.72549C35.2619 8.60179 35.2659 8.46456 35.32 8.34385C35.3416 8.27719 35.3772 8.21594 35.4245 8.16421C35.4718 8.11249 35.5296 8.07151 35.594 8.04402C35.6584 8.01654 35.728 8.00319 35.7981 8.00489C35.8681 8.00658 35.937 8.02328 36 8.05385C36.295 8.17391 36.6251 8.17391 36.92 8.05385C37.0673 7.99677 37.2016 7.91071 37.3149 7.80077C37.4283 7.69084 37.5184 7.55927 37.58 7.41385C37.7481 7.01967 37.7542 6.57517 37.597 6.17653C37.4398 5.7779 37.1319 5.4572 36.74 5.28385C36.4804 5.17494 36.2016 5.11885 35.92 5.11885C35.6385 5.11885 35.3597 5.17494 35.1 5.28385C34.5695 5.49351 34.1423 5.90279 33.91 6.42385C33.6171 7.1074 33.605 7.87878 33.8764 8.57118C34.1477 9.26357 34.6807 9.82134 35.36 10.1239C35.8063 10.312 36.2857 10.4089 36.77 10.4089C37.2543 10.4089 37.7338 10.312 38.18 10.1239H38.28C39.8781 9.47359 41.6269 9.2863 43.3264 9.5834C45.0259 9.8805 46.6074 10.65 47.89 11.8039C49.371 13.1283 50.2659 14.9862 50.3784 16.9697C50.4909 18.9533 49.8118 20.9005 48.49 22.3839C47.9572 22.9812 47.3102 23.4659 46.5872 23.8094C45.8641 24.1528 45.0797 24.3482 44.28 24.3839L43.91 24.4139Z" fill="#BDBDBD"/>
<path d="M49.86 8.09384C49.7945 8.09464 49.7294 8.0817 49.6692 8.05587C49.6089 8.03004 49.5547 7.99187 49.51 7.94384L46 4.40384C45.9078 4.30869 45.8562 4.18137 45.8562 4.04884C45.8562 3.91631 45.9078 3.78899 46 3.69384L49.51 0.143837C49.6052 0.0515881 49.7325 0 49.865 0C49.9976 0 50.1249 0.0515881 50.22 0.143837L53.77 3.69384C53.8606 3.78777 53.9108 3.91337 53.91 4.04384C53.9094 4.17699 53.8595 4.3052 53.77 4.40384L50.22 7.94384C50.1735 7.99215 50.1175 8.0304 50.0556 8.0562C49.9937 8.082 49.9271 8.09481 49.86 8.09384ZM47 4.00384L49.83 6.84384L52.71 4.00384L49.86 1.20384L47 4.00384Z" fill="#BDBDBD"/>
<path d="M97 23.6038H66.39C66.3244 23.6183 66.2565 23.6196 66.1903 23.6079C66.1241 23.5961 66.0609 23.5714 66.0043 23.5352C65.8899 23.462 65.8092 23.3464 65.78 23.2138C65.7656 23.1482 65.7642 23.0803 65.776 23.0141C65.7878 22.9479 65.8125 22.8847 65.8487 22.8281C65.8849 22.7714 65.9319 22.7225 65.9871 22.684C66.0422 22.6455 66.1044 22.6183 66.17 22.6038C67.5104 21.9701 68.7343 21.1148 69.79 20.0738C70.3321 19.3967 70.678 18.5839 70.79 17.7238C70.9211 16.7443 70.6591 15.7528 70.0614 14.9658C69.4637 14.1788 68.5788 13.6604 67.6 13.5238C66.8444 13.4274 66.0814 13.6341 65.4779 14.0989C64.8745 14.5637 64.4797 15.2487 64.38 16.0038C64.3002 16.5832 64.4532 17.1705 64.8056 17.6372C65.158 18.104 65.681 18.412 66.26 18.4938C66.6985 18.5509 67.1418 18.4327 67.4938 18.165C67.8457 17.8973 68.0779 17.5016 68.14 17.0638C68.1816 16.7408 68.0955 16.4143 67.9 16.1538C67.8019 16.0245 67.6787 15.9162 67.5378 15.8355C67.3969 15.7547 67.2413 15.7031 67.08 15.6838C66.8495 15.6534 66.6162 15.7144 66.43 15.8538C66.3373 15.9227 66.2594 16.0096 66.201 16.1092C66.1426 16.2089 66.1048 16.3193 66.09 16.4338C66.0827 16.4993 66.0622 16.5627 66.0298 16.6201C65.9974 16.6775 65.9538 16.7278 65.9015 16.7679C65.8492 16.8081 65.7894 16.8373 65.7255 16.8538C65.6617 16.8702 65.5952 16.8737 65.53 16.8638C65.3988 16.8464 65.2799 16.7777 65.1993 16.6727C65.1187 16.5677 65.083 16.4351 65.1 16.3038C65.1699 15.8075 65.4321 15.3586 65.83 15.0538C66.2275 14.7546 66.7273 14.6252 67.22 14.6938C67.5108 14.7319 67.7912 14.8273 68.0449 14.9743C68.2986 15.1214 68.5207 15.3173 68.6983 15.5507C68.8759 15.784 69.0055 16.0503 69.0796 16.334C69.1537 16.6178 69.1708 16.9134 69.13 17.2038C69.0331 17.9034 68.6631 18.536 68.1008 18.9633C67.5386 19.3906 66.8299 19.5778 66.13 19.4838C65.2886 19.3671 64.5277 18.9216 64.0141 18.245C63.5005 17.5683 63.2761 16.7157 63.39 15.8738C63.4589 15.3689 63.6266 14.8824 63.8835 14.4422C64.1404 14.0021 64.4815 13.6169 64.8873 13.3085C65.2931 13.0002 65.7557 12.7749 66.2486 12.6454C66.7415 12.5159 67.2551 12.4848 67.76 12.5538C68.992 12.7372 70.1023 13.3981 70.8509 14.3936C71.5994 15.3892 71.926 16.6394 71.76 17.8738C71.6142 18.9173 71.1892 19.9019 70.53 20.7238C69.8759 21.4526 69.1137 22.0766 68.27 22.5738H97C97.4606 22.5694 97.9014 22.3866 98.23 22.0638C98.3269 21.9689 98.4035 21.8552 98.4551 21.7297C98.5067 21.6042 98.5322 21.4695 98.53 21.3338C98.5293 21.0577 98.4218 20.7925 98.23 20.5938C98.1304 20.5025 98.0002 20.4518 97.865 20.4518C97.7299 20.4518 97.5996 20.5025 97.5 20.5938C97.4041 20.6911 97.3504 20.8222 97.3504 20.9588C97.3504 21.0954 97.4041 21.2265 97.5 21.3238C97.5469 21.3703 97.5841 21.4256 97.6095 21.4865C97.6349 21.5475 97.6479 21.6128 97.6479 21.6788C97.6479 21.7448 97.6349 21.8102 97.6095 21.8711C97.5841 21.932 97.5469 21.9873 97.5 22.0338C97.4049 22.1261 97.2775 22.1777 97.145 22.1777C97.0125 22.1777 96.8852 22.1261 96.79 22.0338C96.5229 21.7563 96.3695 21.3889 96.36 21.0038C96.3591 20.7045 96.4472 20.4117 96.6131 20.1625C96.7789 19.9134 97.0151 19.7191 97.2916 19.6045C97.568 19.4898 97.8723 19.4599 98.1659 19.5185C98.4594 19.5772 98.7288 19.7217 98.94 19.9338C99.1314 20.1214 99.2831 20.3455 99.3862 20.5929C99.4893 20.8403 99.5416 21.1058 99.54 21.3738C99.5416 21.6418 99.4893 21.9074 99.3862 22.1547C99.2831 22.4021 99.1314 22.6262 98.94 22.8138C98.4235 23.3237 97.7258 23.6078 97 23.6038Z" fill="#BDBDBD"/>
<path d="M33.15 23.6038H2.53003C2.17148 23.6043 1.81638 23.5338 1.48516 23.3965C1.15394 23.2592 0.853128 23.0578 0.600034 22.8038C0.40865 22.6162 0.256917 22.3921 0.153846 22.1447C0.0507752 21.8974 -0.00153103 21.6318 3.41142e-05 21.3638C-0.00153103 21.0958 0.0507752 20.8303 0.153846 20.5829C0.256917 20.3355 0.40865 20.1114 0.600034 19.9238C0.883816 19.64 1.26871 19.4806 1.67003 19.4806C2.07136 19.4806 2.45625 19.64 2.74003 19.9238C3.02382 20.2076 3.18324 20.5925 3.18324 20.9938C3.18324 21.3952 3.02382 21.78 2.74003 22.0638C2.64488 22.1561 2.51756 22.2077 2.38503 22.2077C2.25251 22.2077 2.12518 22.1561 2.03003 22.0638C1.98317 22.0173 1.94597 21.962 1.92059 21.9011C1.8952 21.8402 1.88213 21.7748 1.88213 21.7088C1.88213 21.6428 1.8952 21.5775 1.92059 21.5165C1.94597 21.4556 1.98317 21.4003 2.03003 21.3538C2.12591 21.2565 2.17966 21.1254 2.17966 20.9888C2.17966 20.8522 2.12591 20.7211 2.03003 20.6238C1.93043 20.5325 1.80019 20.4818 1.66503 20.4818C1.52988 20.4818 1.39964 20.5325 1.30003 20.6238C1.10829 20.8225 1.0008 21.0877 1.00003 21.3638C0.997899 21.4995 1.02339 21.6342 1.07497 21.7597C1.12655 21.8852 1.20312 21.9989 1.30003 22.0938C1.46087 22.2563 1.65249 22.3851 1.86368 22.4727C2.07487 22.5602 2.30141 22.6048 2.53003 22.6038H31.23C30.397 22.104 29.6451 21.4802 29 20.7538C28.3409 19.9319 27.9159 18.9473 27.77 17.9038C27.6041 16.6694 27.9306 15.4192 28.6792 14.4236C29.4277 13.4281 30.538 12.7672 31.77 12.5838C32.2752 12.5134 32.7892 12.5436 33.2827 12.6725C33.7761 12.8015 34.2392 13.0267 34.6453 13.3352C35.0514 13.6438 35.3925 14.0295 35.6491 14.4703C35.9056 14.9111 36.0724 15.3983 36.14 15.9038C36.2539 16.7456 36.0295 17.5983 35.5159 18.275C35.0023 18.9516 34.2415 19.3971 33.4 19.5138C33.0533 19.5617 32.7004 19.5407 32.3618 19.4519C32.0232 19.3631 31.7054 19.2084 31.4267 18.9966C31.148 18.7848 30.9139 18.52 30.7377 18.2175C30.5615 17.9151 30.4468 17.5808 30.4 17.2338C30.3231 16.6481 30.4807 16.0558 30.8384 15.5857C31.1961 15.1156 31.725 14.8058 32.31 14.7238C32.554 14.6893 32.8024 14.7033 33.041 14.7651C33.2795 14.8269 33.5035 14.9352 33.7 15.0838C34.0979 15.3886 34.3601 15.8375 34.43 16.3338C34.4386 16.3995 34.4341 16.4662 34.4168 16.5301C34.3996 16.594 34.3699 16.6539 34.3295 16.7064C34.2892 16.7589 34.2388 16.8029 34.1814 16.8359C34.124 16.8689 34.0607 16.8903 33.995 16.8988C33.9294 16.9074 33.8627 16.9029 33.7987 16.8856C33.7348 16.8684 33.6749 16.8387 33.6224 16.7983C33.57 16.7579 33.526 16.7076 33.493 16.6502C33.46 16.5928 33.4386 16.5295 33.43 16.4638C33.4152 16.3493 33.3775 16.2389 33.3191 16.1392C33.2606 16.0396 33.1828 15.9527 33.09 15.8838C32.9004 15.7438 32.6637 15.6829 32.43 15.7138C32.1099 15.7632 31.8222 15.9369 31.6294 16.1971C31.4365 16.4574 31.3541 16.7832 31.4 17.1038C31.4645 17.5398 31.6977 17.933 32.0494 18.1986C32.4011 18.4642 32.843 18.581 33.28 18.5238C33.5691 18.4822 33.8471 18.3839 34.0982 18.2347C34.3492 18.0854 34.5683 17.8881 34.743 17.654C34.9176 17.4199 35.0444 17.1536 35.1159 16.8704C35.1875 16.5873 35.2025 16.2928 35.16 16.0038C35.0532 15.2495 34.6529 14.5679 34.0462 14.1072C33.4394 13.6465 32.6753 13.444 31.92 13.5438C31.4343 13.609 30.9662 13.7694 30.5427 14.0161C30.1191 14.2627 29.7485 14.5905 29.4521 14.9808C29.1557 15.3711 28.9393 15.8161 28.8154 16.2903C28.6914 16.7644 28.6624 17.2584 28.73 17.7438C28.8421 18.6039 29.188 19.4167 29.73 20.0938C30.7858 21.1348 32.0097 21.9901 33.35 22.6238C33.4157 22.6383 33.4779 22.6655 33.533 22.704C33.5881 22.7425 33.6352 22.7914 33.6714 22.8481C33.7076 22.9047 33.7323 22.9679 33.7441 23.0341C33.7558 23.1003 33.7545 23.1682 33.74 23.2338C33.7256 23.2995 33.6984 23.3617 33.6599 23.4168C33.6214 23.4719 33.5724 23.5189 33.5158 23.5552C33.4592 23.5914 33.3959 23.6161 33.3298 23.6279C33.2636 23.6396 33.1957 23.6383 33.13 23.6238L33.15 23.6038Z" fill="#BDBDBD"/>
</svg>
