<svg width="52" height="52" viewBox="0 0 52 52" fill="none" xmlns="http://www.w3.org/2000/svg">
<path d="M0.499992 18.12C0.503807 17.3042 0.673943 16.4978 0.999992 15.75C1.31821 14.996 1.78374 14.313 2.36929 13.7412C2.95483 13.1694 3.64862 12.7202 4.40999 12.42C5.17497 12.1249 5.99026 11.9822 6.80999 12C7.48024 12.0107 8.1422 12.1499 8.75999 12.41C9.20304 12.6138 9.61674 12.8761 9.98999 13.19L11.23 11.95L8.84999 9.58C7.15837 9.41743 5.56355 8.71641 4.29999 7.58C3.13163 6.26597 2.42873 4.60361 2.29999 2.85C2.2939 2.77886 2.30343 2.70726 2.32792 2.64019C2.3524 2.57312 2.39124 2.51222 2.44173 2.46173C2.49221 2.41125 2.55312 2.37241 2.62018 2.34792C2.68725 2.32344 2.75886 2.31391 2.82999 2.32C4.58361 2.44874 6.24596 3.15164 7.55999 4.32C8.6964 5.58355 9.39743 7.17838 9.55999 8.87L11.93 11.25L13.17 10C12.8561 9.62674 12.5938 9.21305 12.39 8.77C12.1355 8.14774 12.0031 7.4823 12 6.81C11.9899 5.99231 12.1394 5.18049 12.44 4.42C12.7368 3.65862 13.1824 2.96403 13.7507 2.37682C14.3191 1.78961 14.9987 1.32156 15.75 1C16.4978 0.673949 17.3042 0.503816 18.12 0.5H48.29C49.1547 0.521332 49.9766 0.880271 50.58 1.5C51.1871 2.13784 51.5177 2.98961 51.5 3.87C51.4818 4.59338 51.1822 5.28114 50.665 5.78718C50.1478 6.29321 49.4536 6.57763 48.73 6.58C48.113 6.56437 47.5271 6.30558 47.1 5.86C46.8869 5.63864 46.7202 5.37682 46.61 5.09C46.5007 4.80992 46.4496 4.51048 46.46 4.21C46.467 3.95878 46.5213 3.71112 46.62 3.48C46.7055 3.24477 46.8344 3.02768 47 2.84C47.1817 2.65934 47.3999 2.51955 47.64 2.43C47.8752 2.33678 48.1271 2.29254 48.38 2.3C48.5963 2.30357 48.81 2.34766 49.01 2.43C49.3143 2.56106 49.5717 2.78122 49.7485 3.06147C49.9252 3.34173 50.0129 3.66893 50 4C49.9974 4.06568 49.9819 4.1302 49.9544 4.18989C49.9268 4.24957 49.8878 4.30324 49.8395 4.34782C49.7912 4.3924 49.7346 4.42702 49.6729 4.4497C49.6112 4.47238 49.5457 4.48268 49.48 4.48C49.3543 4.47506 49.235 4.42291 49.1461 4.33394C49.0571 4.24497 49.0049 4.12573 49 4C49.0192 3.91777 49.0192 3.83223 49 3.75C48.9689 3.66784 48.9213 3.59295 48.86 3.53C48.7986 3.46896 48.7276 3.41831 48.65 3.38C48.5704 3.34817 48.4857 3.33122 48.4 3.33C48.2661 3.31012 48.1294 3.32037 48 3.36C47.8873 3.40525 47.7851 3.47334 47.7 3.56C47.6106 3.64552 47.539 3.74784 47.4892 3.86109C47.4394 3.97435 47.4125 4.09632 47.41 4.22C47.4049 4.39436 47.4356 4.56791 47.5 4.73C47.5586 4.89082 47.6506 5.03737 47.77 5.16C47.8876 5.28813 48.0306 5.39031 48.19 5.46C48.3488 5.52603 48.5181 5.56328 48.69 5.57C49.157 5.57814 49.6086 5.40236 49.9472 5.08059C50.2858 4.75882 50.4843 4.31685 50.5 3.85C50.5108 3.2424 50.2817 2.65501 49.8624 2.21514C49.4432 1.77526 48.8674 1.51832 48.26 1.5H18.13C17.4423 1.5079 16.7628 1.65059 16.13 1.92C15.5017 2.19697 14.9316 2.59059 14.45 3.08C13.9687 3.56948 13.5911 4.1511 13.34 4.79C13.0889 5.4266 12.9633 6.10572 12.97 6.79C12.9791 7.32957 13.0911 7.86243 13.3 8.36C13.4455 8.68904 13.6374 8.9955 13.87 9.27L14.11 9C14.2051 8.90775 14.3325 8.85616 14.465 8.85616C14.5975 8.85616 14.7248 8.90775 14.82 9C14.8669 9.04648 14.9041 9.10178 14.9294 9.16271C14.9548 9.22364 14.9679 9.28899 14.9679 9.355C14.9679 9.42101 14.9548 9.48636 14.9294 9.54729C14.9041 9.60822 14.8669 9.66352 14.82 9.71L14.59 9.94C14.8947 10.1789 15.2313 10.3742 15.59 10.52C16.0885 10.7212 16.6225 10.8198 17.16 10.81C17.8924 10.813 18.6017 10.5541 19.16 10.08L19.62 9.61C19.7793 9.37792 19.9071 9.12572 20 8.86C20.1526 8.4717 20.2274 8.05716 20.22 7.64C20.2095 6.9946 19.9436 6.37967 19.4807 5.92985C19.0177 5.48003 18.3954 5.23198 17.75 5.24C17.5055 5.24072 17.2638 5.29178 17.04 5.39C16.8188 5.48291 16.6182 5.61888 16.45 5.79C16.2815 5.96598 16.149 6.1732 16.06 6.4C15.9726 6.62645 15.9285 6.86728 15.93 7.11C15.9332 7.48555 16.0841 7.84475 16.35 8.11C16.4818 8.23897 16.6384 8.34 16.8102 8.40701C16.982 8.47403 17.1656 8.50565 17.35 8.5C17.4826 8.5 17.6098 8.55268 17.7035 8.64645C17.7973 8.74021 17.85 8.86739 17.85 9C17.8513 9.06518 17.8396 9.12998 17.8156 9.19059C17.7916 9.2512 17.7557 9.3064 17.7101 9.35297C17.6644 9.39953 17.61 9.43652 17.5498 9.46177C17.4897 9.48702 17.4252 9.50001 17.36 9.5C16.7331 9.49214 16.1343 9.23823 15.6929 8.79303C15.2514 8.34782 15.0026 7.74697 15 7.12C14.9798 6.73981 15.0342 6.35933 15.16 6C15.2975 5.65389 15.5013 5.33798 15.76 5.07C16.023 4.80247 16.3355 4.58851 16.68 4.44C17.0234 4.2884 17.3946 4.21006 17.77 4.21C18.223 4.2041 18.6726 4.28962 19.0919 4.46144C19.5111 4.63326 19.8914 4.88785 20.21 5.21C20.8487 5.84961 21.2082 6.71608 21.21 7.62C21.21 7.74 21.21 7.85 21.21 7.97L24.79 4.39C25.057 4.13796 25.371 3.94108 25.7142 3.81067C26.0574 3.68025 26.423 3.61886 26.79 3.63C27.5131 3.63924 28.2033 3.934 28.71 4.45C28.9226 4.66027 29.0894 4.91221 29.2 5.19C29.3185 5.46999 29.3796 5.77095 29.3796 6.075C29.3796 6.37905 29.3185 6.68001 29.2 6.96C29.0871 7.24197 28.9169 7.49738 28.7 7.71C28.3291 8.05875 27.8391 8.25291 27.33 8.25291C26.8209 8.25291 26.3309 8.05875 25.96 7.71C25.6595 7.40254 25.4909 6.98993 25.49 6.56C25.4914 6.12723 25.6598 5.7117 25.96 5.4C26.0528 5.30452 26.1798 5.24983 26.3129 5.24795C26.4461 5.24608 26.5745 5.29717 26.67 5.39C26.7655 5.48283 26.8202 5.60978 26.822 5.74293C26.8239 5.87608 26.7728 6.00452 26.68 6.1C26.5591 6.22266 26.4909 6.38775 26.49 6.56C26.4913 6.72922 26.5597 6.89102 26.68 7.01C26.7662 7.09712 26.869 7.16594 26.9824 7.21234C27.0959 7.25874 27.2175 7.28175 27.34 7.28C27.587 7.27145 27.8222 7.1717 28 7C28.1201 6.87981 28.2152 6.73707 28.28 6.58C28.346 6.42157 28.38 6.25163 28.38 6.08C28.38 5.90837 28.346 5.73843 28.28 5.58C28.2192 5.415 28.1237 5.26497 28 5.14C27.8378 4.97585 27.6447 4.8454 27.4319 4.75615C27.2191 4.66691 26.9908 4.62064 26.76 4.62C26.2953 4.61391 25.8467 4.78976 25.51 5.11L20.32 10.31C20.24 10.4 20.18 10.5 20.09 10.59C19.711 10.9851 19.2549 11.2983 18.75 11.51C18.2489 11.731 17.7077 11.8467 17.16 11.85C16.4757 11.8682 15.795 11.7456 15.16 11.49C14.686 11.29 14.2444 11.0204 13.85 10.69L12.61 11.93L14.85 14.17C15.0044 14.0738 15.1732 14.003 15.35 13.96C15.6779 13.8753 16.022 13.8753 16.35 13.96C17.1011 14.1885 17.7868 14.593 18.35 15.14C18.6768 15.4578 19.0694 15.7002 19.5 15.85C19.9798 16.0235 20.4953 16.075 21 16C21.078 15.9975 21.1556 16.0113 21.228 16.0406C21.3003 16.0699 21.3657 16.114 21.42 16.17C21.4771 16.2219 21.5226 16.2852 21.5536 16.3559C21.5846 16.4265 21.6004 16.5029 21.6 16.58C21.5995 16.6969 21.5688 16.8117 21.511 16.9133C21.4532 17.0149 21.3702 17.0998 21.27 17.16C20.89 17.4 20.5 17.61 20.1 17.82C20.4564 18.6627 20.757 19.5279 21 20.41C21.0201 20.4945 21.0188 20.5827 20.9961 20.6665C20.9734 20.7504 20.93 20.8272 20.87 20.89C20.8073 20.9534 20.7288 20.9988 20.6427 21.0217C20.5565 21.0446 20.4658 21.044 20.38 21.02C19.517 20.7703 18.6718 20.4629 17.85 20.1C17.64 20.5 17.43 20.89 17.19 21.27C17.1306 21.3709 17.0458 21.4544 16.944 21.5123C16.8422 21.5702 16.7271 21.6005 16.61 21.6C16.5314 21.6006 16.4534 21.5849 16.3812 21.5539C16.3089 21.523 16.2438 21.4774 16.19 21.42C16.1318 21.3663 16.0849 21.3015 16.0523 21.2293C16.0196 21.1572 16.0019 21.0792 16 21C16.0511 20.5444 15.9998 20.0832 15.85 19.65C15.7002 19.2194 15.4578 18.8269 15.14 18.5C14.593 17.9368 14.1885 17.2511 13.96 16.5C13.8753 16.172 13.8753 15.828 13.96 15.5C14.0029 15.3232 14.0738 15.1544 14.17 15L11.93 12.76L10.69 14C11.0204 14.3944 11.29 14.836 11.49 15.31C11.7456 15.945 11.8682 16.6257 11.85 17.31C11.8467 17.8577 11.731 18.3989 11.51 18.9C11.2983 19.4049 10.9851 19.861 10.59 20.24C10.5 20.33 10.4 20.39 10.31 20.47L5.10999 25.66C4.78976 25.9967 4.6139 26.4453 4.61999 26.91C4.65849 27.3235 4.84281 27.7099 5.13999 28C5.32455 28.1819 5.55857 28.3054 5.81285 28.3552C6.06714 28.405 6.33046 28.3788 6.56999 28.28C6.73063 28.2164 6.87685 28.1212 6.99999 28C7.17033 27.8181 7.26662 27.5792 7.26999 27.33C7.27232 27.2074 7.24958 27.0856 7.20315 26.9721C7.15672 26.8586 7.08759 26.7558 6.99999 26.67C6.88101 26.5497 6.71921 26.4813 6.54999 26.48C6.37774 26.4809 6.21266 26.5491 6.08999 26.67C6.04272 26.716 5.98685 26.7522 5.92558 26.7765C5.86432 26.8009 5.79885 26.813 5.73292 26.812C5.66699 26.8111 5.60189 26.7972 5.54134 26.7711C5.48078 26.745 5.42596 26.7073 5.37999 26.66C5.33403 26.6127 5.29783 26.5569 5.27346 26.4956C5.24908 26.4343 5.23702 26.3689 5.23795 26.3029C5.23887 26.237 5.25278 26.1719 5.27887 26.1113C5.30496 26.0508 5.34272 25.996 5.38999 25.95C5.70169 25.6498 6.11722 25.4814 6.54999 25.48C6.97992 25.4809 7.39253 25.6495 7.69999 25.95C8.04874 26.3209 8.2429 26.8109 8.2429 27.32C8.2429 27.8291 8.04874 28.3191 7.69999 28.69C7.48737 28.9069 7.23196 29.0771 6.94999 29.19C6.67 29.3085 6.36905 29.3696 6.06499 29.3696C5.76094 29.3696 5.45999 29.3085 5.17999 29.19C4.9022 29.0794 4.65026 28.9126 4.43999 28.7C3.92398 28.1933 3.62923 27.5031 3.61999 26.78C3.60885 26.413 3.67024 26.0475 3.80066 25.7043C3.93108 25.3611 4.12795 25.047 4.37999 24.78L7.99999 21.22C7.87999 21.22 7.76999 21.22 7.64999 21.22C6.74607 21.2183 5.87961 20.8587 5.23999 20.22C4.91785 19.9014 4.66325 19.5211 4.49143 19.1019C4.31961 18.6826 4.23409 18.233 4.23999 17.78C4.24006 17.4046 4.31839 17.0334 4.46999 16.69C4.61851 16.3455 4.83246 16.033 5.09999 15.77C5.36797 15.5114 5.68388 15.3075 6.02999 15.17C6.37723 15.0344 6.74722 14.9665 7.11999 14.97C7.75038 14.9805 8.35107 15.2397 8.79123 15.6911C9.23139 16.1425 9.47536 16.7495 9.46999 17.38C9.47001 17.4452 9.45701 17.5097 9.43176 17.5699C9.40651 17.63 9.36952 17.6844 9.32296 17.7301C9.27639 17.7757 9.22119 17.8116 9.16058 17.8356C9.09997 17.8596 9.03518 17.8713 8.96999 17.87C8.83739 17.87 8.71021 17.8173 8.61644 17.7236C8.52267 17.6298 8.46999 17.5026 8.46999 17.37C8.47565 17.1856 8.44402 17.0021 8.377 16.8302C8.30999 16.6584 8.20897 16.5019 8.07999 16.37C7.81475 16.1041 7.45555 15.9533 7.07999 15.95C6.8372 15.9476 6.59618 15.9917 6.36999 16.08C6.14319 16.169 5.93597 16.3015 5.75999 16.47C5.58887 16.6382 5.4529 16.8388 5.35999 17.06C5.26177 17.2839 5.21071 17.5255 5.20999 17.77C5.20197 18.4154 5.45003 19.0378 5.89985 19.5007C6.34966 19.9636 6.9646 20.2295 7.60999 20.24C8.03544 20.2462 8.45759 20.1645 8.84999 20C9.12414 19.8883 9.38025 19.7367 9.60999 19.55L10.08 19.09C10.5541 18.5318 10.813 17.8224 10.81 17.09C10.8198 16.5525 10.7212 16.0185 10.52 15.52C10.3741 15.1613 10.1789 14.8247 9.93999 14.52L9.82999 14.63C9.7851 14.6778 9.73088 14.716 9.67069 14.742C9.61049 14.7681 9.54559 14.7815 9.47999 14.7815C9.41439 14.7815 9.34949 14.7681 9.2893 14.742C9.2291 14.716 9.17488 14.6778 9.12999 14.63C9.08313 14.5835 9.04593 14.5282 9.02055 14.4673C8.99516 14.4064 8.98209 14.341 8.98209 14.275C8.98209 14.209 8.99516 14.1436 9.02055 14.0827C9.04593 14.0218 9.08313 13.9665 9.12999 13.92L9.23999 13.81C8.96549 13.5774 8.65903 13.3855 8.32999 13.24C7.83905 13.0667 7.3204 12.9854 6.79999 13C6.11571 12.9933 5.43659 13.1189 4.79999 13.37C4.16109 13.6211 3.57948 13.9987 3.08999 14.48C2.60058 14.9616 2.20696 15.5317 1.92999 16.16C1.66059 16.7928 1.51789 17.4723 1.50999 18.16V48.26C1.52831 48.8674 1.78525 49.4432 2.22513 49.8624C2.66501 50.2817 3.25239 50.5108 3.85999 50.5C4.32163 50.487 4.76017 50.2952 5.08297 49.9649C5.40577 49.6346 5.58758 49.1918 5.58999 48.73C5.58327 48.5581 5.54602 48.3888 5.47999 48.23C5.4103 48.0707 5.30812 47.9276 5.17999 47.81C5.05737 47.6906 4.91081 47.5986 4.74999 47.54C4.5879 47.4756 4.41435 47.4449 4.23999 47.45C4.11631 47.4525 3.99435 47.4795 3.88109 47.5292C3.76783 47.579 3.66551 47.6506 3.57999 47.74C3.49334 47.8251 3.42524 47.9273 3.37999 48.04C3.33589 48.1547 3.31548 48.2772 3.31999 48.4C3.32121 48.4857 3.33816 48.5704 3.36999 48.65C3.4083 48.7277 3.45896 48.7986 3.51999 48.86C3.58294 48.9213 3.65783 48.9689 3.73999 49C3.82222 49.0192 3.90776 49.0192 3.98999 49C4.05567 48.9973 4.12122 49.0076 4.18291 49.0303C4.24461 49.053 4.30122 49.0876 4.34952 49.1322C4.39782 49.1768 4.43685 49.2304 4.46438 49.2901C4.49192 49.3498 4.50742 49.4143 4.50999 49.48C4.51267 49.5457 4.50238 49.6112 4.47969 49.6729C4.45701 49.7346 4.42239 49.7912 4.37781 49.8395C4.33323 49.8878 4.27956 49.9269 4.21988 49.9544C4.1602 49.9819 4.09567 49.9974 4.02999 50C3.81014 50.0108 3.59038 49.977 3.38396 49.9005C3.17754 49.8241 2.98874 49.7066 2.82895 49.5553C2.66916 49.4039 2.54168 49.2217 2.4542 49.0197C2.36673 48.8177 2.32108 48.6001 2.31999 48.38C2.31253 48.1271 2.35677 47.8753 2.44999 47.64C2.53955 47.3999 2.67933 47.1817 2.85999 47C3.04046 46.8176 3.25435 46.6716 3.48999 46.57C3.72111 46.4713 3.96877 46.417 4.21999 46.41C4.52048 46.3996 4.81992 46.4507 5.09999 46.56C5.38877 46.6663 5.65135 46.8334 5.86999 47.05C6.31557 47.4771 6.57436 48.063 6.58999 48.68C6.58762 49.4036 6.3032 50.0978 5.79717 50.615C5.29113 51.1322 4.60337 51.4318 3.87999 51.45C3.00649 51.4625 2.16286 51.1322 1.52999 50.53C0.910263 49.9266 0.551323 49.1047 0.529991 48.24V18.13L0.499992 18.12ZM6.86999 5C5.88483 4.14801 4.67805 3.59318 3.38999 3.4C3.58785 4.68561 4.1461 5.88878 4.99999 6.87C5.74979 7.52605 6.63367 8.01065 7.58999 8.29L4.84999 5.54C4.75716 5.44717 4.70502 5.32128 4.70502 5.19C4.70502 5.05872 4.75716 4.93283 4.84999 4.84C4.89595 4.79404 4.95052 4.75758 5.01057 4.7327C5.07063 4.70783 5.13499 4.69503 5.19999 4.69503C5.33127 4.69503 5.45716 4.74717 5.54999 4.84L8.28999 7.58C8.00931 6.62722 7.52478 5.74688 6.86999 5ZM14.95 16.13C15.1278 16.7439 15.4501 17.3063 15.89 17.77C16.3087 18.2072 16.6292 18.7289 16.83 19.3C16.83 19.43 16.89 19.58 16.92 19.72C17.01 19.56 17.11 19.4 17.19 19.24C17.2462 19.1238 17.346 19.0344 17.4677 18.9913C17.5894 18.9483 17.7232 18.955 17.84 19.01C18.47 19.29 19.1 19.53 19.75 19.75C19.5339 19.1005 19.2835 18.463 19 17.84C18.945 17.7232 18.9383 17.5894 18.9813 17.4677C19.0244 17.346 19.1138 17.2462 19.23 17.19L19.71 16.92C19.57 16.92 19.42 16.87 19.29 16.83C18.7189 16.6292 18.1972 16.3087 17.76 15.89C17.2969 15.4709 16.7421 15.1661 16.14 15C15.9737 14.9497 15.7963 14.9497 15.63 15C15.4656 15.0465 15.3159 15.1343 15.1951 15.2551C15.0743 15.3759 14.9865 15.5256 14.94 15.69C14.906 15.8351 14.9094 15.9865 14.95 16.13Z" fill="#E0E0E0"/>
</svg>
