<svg width="52" height="52" viewBox="0 0 52 52" fill="none" xmlns="http://www.w3.org/2000/svg">
<path d="M51.5 18.12C51.4962 17.3042 51.3261 16.4978 51 15.75C50.6818 14.996 50.2163 14.313 49.6307 13.7412C49.0452 13.1694 48.3514 12.7202 47.59 12.42C46.825 12.1249 46.0097 11.9822 45.19 12C44.5198 12.0107 43.8578 12.1499 43.24 12.41C42.797 12.6138 42.3833 12.8761 42.01 13.19L40.77 11.95L43.15 9.58C44.8416 9.41743 46.4365 8.71641 47.7 7.58C48.8684 6.26597 49.5713 4.60361 49.7 2.85C49.7061 2.77886 49.6966 2.70726 49.6721 2.64019C49.6476 2.57312 49.6088 2.51222 49.5583 2.46173C49.5078 2.41125 49.4469 2.37241 49.3798 2.34792C49.3128 2.32344 49.2411 2.31391 49.17 2.32C47.4164 2.44874 45.754 3.15164 44.44 4.32C43.3036 5.58355 42.6026 7.17838 42.44 8.87L40.07 11.25L38.83 10C39.1439 9.62674 39.4062 9.21305 39.61 8.77C39.8645 8.14774 39.9969 7.4823 40 6.81C40.0101 5.99231 39.8606 5.18049 39.56 4.42C39.2632 3.65862 38.8176 2.96403 38.2493 2.37682C37.6809 1.78961 37.0013 1.32156 36.25 1C35.5022 0.673949 34.6958 0.503816 33.88 0.5H3.71001C2.84534 0.521332 2.02337 0.880271 1.42001 1.5C0.812914 2.13784 0.482267 2.98961 0.500007 3.87C0.518224 4.59338 0.817772 5.28114 1.33501 5.78718C1.85225 6.29321 2.54641 6.57763 3.27001 6.58C3.88703 6.56437 4.4729 6.30558 4.90001 5.86C5.11314 5.63864 5.27975 5.37682 5.39001 5.09C5.49935 4.80992 5.55039 4.51048 5.54001 4.21C5.53301 3.95878 5.47873 3.71112 5.38001 3.48C5.2945 3.24477 5.1656 3.02768 5.00001 2.84C4.81829 2.65934 4.60009 2.51955 4.36001 2.43C4.12475 2.33678 3.87295 2.29254 3.62001 2.3C3.40373 2.30357 3.19003 2.34766 2.99001 2.43C2.68572 2.56106 2.42826 2.78122 2.25154 3.06147C2.07482 3.34173 1.98712 3.66893 2.00001 4C2.00258 4.06568 2.01808 4.1302 2.04562 4.18989C2.07315 4.24957 2.11219 4.30324 2.16048 4.34782C2.20878 4.3924 2.26539 4.42702 2.32709 4.4497C2.38878 4.47238 2.45433 4.48268 2.52001 4.48C2.64573 4.47506 2.76498 4.42291 2.85395 4.33394C2.94292 4.24497 2.99507 4.12573 3.00001 4C2.98082 3.91777 2.98082 3.83223 3.00001 3.75C3.03108 3.66784 3.07874 3.59295 3.14001 3.53C3.20143 3.46896 3.27235 3.41831 3.35001 3.38C3.42958 3.34817 3.51432 3.33122 3.60001 3.33C3.73391 3.31012 3.87057 3.32037 4.00001 3.36C4.11274 3.40525 4.21488 3.47334 4.30001 3.56C4.3894 3.64552 4.46103 3.74784 4.51079 3.86109C4.56056 3.97435 4.58748 4.09632 4.59001 4.22C4.59507 4.39436 4.56444 4.56791 4.50001 4.73C4.44143 4.89082 4.34941 5.03737 4.23001 5.16C4.1124 5.28813 3.96935 5.39031 3.81001 5.46C3.65118 5.52603 3.48188 5.56328 3.31001 5.57C2.84297 5.57814 2.39145 5.40236 2.05284 5.08059C1.71424 4.75882 1.51568 4.31685 1.50001 3.85C1.48921 3.2424 1.71827 2.65501 2.13756 2.21514C2.55685 1.77526 3.13259 1.51832 3.74001 1.5H33.87C34.5577 1.5079 35.2372 1.65059 35.87 1.92C36.4983 2.19697 37.0684 2.59059 37.55 3.08C38.0313 3.56948 38.4089 4.1511 38.66 4.79C38.9111 5.4266 39.0367 6.10572 39.03 6.79C39.0209 7.32957 38.9089 7.86243 38.7 8.36C38.5545 8.68904 38.3626 8.9955 38.13 9.27L37.89 9C37.7949 8.90775 37.6675 8.85616 37.535 8.85616C37.4025 8.85616 37.2752 8.90775 37.18 9C37.1331 9.04648 37.0959 9.10178 37.0706 9.16271C37.0452 9.22364 37.0321 9.28899 37.0321 9.355C37.0321 9.42101 37.0452 9.48636 37.0706 9.54729C37.0959 9.60822 37.1331 9.66352 37.18 9.71L37.41 9.94C37.1053 10.1789 36.7687 10.3742 36.41 10.52C35.9115 10.7212 35.3775 10.8198 34.84 10.81C34.1076 10.813 33.3983 10.5541 32.84 10.08L32.38 9.61C32.2207 9.37792 32.0929 9.12572 32 8.86C31.8474 8.4717 31.7726 8.05716 31.78 7.64C31.7905 6.9946 32.0564 6.37967 32.5193 5.92985C32.9823 5.48003 33.6046 5.23198 34.25 5.24C34.4945 5.24072 34.7362 5.29178 34.96 5.39C35.1812 5.48291 35.3818 5.61888 35.55 5.79C35.7185 5.96598 35.851 6.1732 35.94 6.4C36.0274 6.62645 36.0715 6.86728 36.07 7.11C36.0668 7.48555 35.9159 7.84475 35.65 8.11C35.5182 8.23897 35.3616 8.34 35.1898 8.40701C35.018 8.47403 34.8344 8.50565 34.65 8.5C34.5174 8.5 34.3902 8.55268 34.2965 8.64645C34.2027 8.74021 34.15 8.86739 34.15 9C34.1487 9.06518 34.1604 9.12998 34.1844 9.19059C34.2084 9.2512 34.2443 9.3064 34.2899 9.35297C34.3356 9.39953 34.39 9.43652 34.4502 9.46177C34.5103 9.48702 34.5748 9.50001 34.64 9.5C35.2669 9.49214 35.8657 9.23823 36.3071 8.79303C36.7486 8.34782 36.9974 7.74697 37 7.12C37.0202 6.73981 36.9658 6.35933 36.84 6C36.7025 5.65389 36.4987 5.33798 36.24 5.07C35.977 4.80247 35.6645 4.58851 35.32 4.44C34.9766 4.2884 34.6054 4.21006 34.23 4.21C33.777 4.2041 33.3274 4.28962 32.9081 4.46144C32.4889 4.63326 32.1086 4.88785 31.79 5.21C31.1513 5.84961 30.7918 6.71608 30.79 7.62C30.79 7.74 30.79 7.85 30.79 7.97L27.21 4.39C26.943 4.13796 26.629 3.94108 26.2858 3.81067C25.9426 3.68025 25.577 3.61886 25.21 3.63C24.4869 3.63924 23.7967 3.934 23.29 4.45C23.0774 4.66027 22.9106 4.91221 22.8 5.19C22.6815 5.46999 22.6204 5.77095 22.6204 6.075C22.6204 6.37905 22.6815 6.68001 22.8 6.96C22.9129 7.24197 23.0831 7.49738 23.3 7.71C23.6709 8.05875 24.1609 8.25291 24.67 8.25291C25.1791 8.25291 25.6691 8.05875 26.04 7.71C26.3405 7.40254 26.5091 6.98993 26.51 6.56C26.5086 6.12723 26.3402 5.7117 26.04 5.4C25.9472 5.30452 25.8202 5.24983 25.6871 5.24795C25.5539 5.24608 25.4255 5.29717 25.33 5.39C25.2345 5.48283 25.1798 5.60978 25.178 5.74293C25.1761 5.87608 25.2272 6.00452 25.32 6.1C25.4409 6.22266 25.5091 6.38775 25.51 6.56C25.5087 6.72922 25.4403 6.89102 25.32 7.01C25.2338 7.09712 25.131 7.16594 25.0176 7.21234C24.9041 7.25874 24.7825 7.28175 24.66 7.28C24.413 7.27145 24.1778 7.1717 24 7C23.8799 6.87981 23.7848 6.73707 23.72 6.58C23.654 6.42157 23.62 6.25163 23.62 6.08C23.62 5.90837 23.654 5.73843 23.72 5.58C23.7808 5.415 23.8763 5.26497 24 5.14C24.1622 4.97585 24.3553 4.8454 24.5681 4.75615C24.7809 4.66691 25.0092 4.62064 25.24 4.62C25.7047 4.61391 26.1533 4.78976 26.49 5.11L31.68 10.31C31.76 10.4 31.82 10.5 31.91 10.59C32.289 10.9851 32.7451 11.2983 33.25 11.51C33.7511 11.731 34.2923 11.8467 34.84 11.85C35.5243 11.8682 36.205 11.7456 36.84 11.49C37.314 11.29 37.7556 11.0204 38.15 10.69L39.39 11.93L37.15 14.17C36.9956 14.0738 36.8268 14.003 36.65 13.96C36.3221 13.8753 35.978 13.8753 35.65 13.96C34.8989 14.1885 34.2132 14.593 33.65 15.14C33.3232 15.4578 32.9306 15.7002 32.5 15.85C32.0202 16.0235 31.5047 16.075 31 16C30.922 15.9975 30.8444 16.0113 30.772 16.0406C30.6997 16.0699 30.6343 16.114 30.58 16.17C30.5229 16.2219 30.4774 16.2852 30.4464 16.3559C30.4154 16.4265 30.3996 16.5029 30.4 16.58C30.4005 16.6969 30.4312 16.8117 30.489 16.9133C30.5468 17.0149 30.6298 17.0998 30.73 17.16C31.11 17.4 31.5 17.61 31.9 17.82C31.5436 18.6627 31.243 19.5279 31 20.41C30.9799 20.4945 30.9812 20.5827 31.0039 20.6665C31.0266 20.7504 31.07 20.8272 31.13 20.89C31.1927 20.9534 31.2712 20.9988 31.3573 21.0217C31.4435 21.0446 31.5342 21.044 31.62 21.02C32.483 20.7703 33.3282 20.4629 34.15 20.1C34.36 20.5 34.57 20.89 34.81 21.27C34.8694 21.3709 34.9542 21.4544 35.056 21.5123C35.1578 21.5702 35.2729 21.6005 35.39 21.6C35.4686 21.6006 35.5466 21.5849 35.6188 21.5539C35.6911 21.523 35.7562 21.4774 35.81 21.42C35.8682 21.3663 35.9151 21.3015 35.9477 21.2293C35.9804 21.1572 35.9981 21.0792 36 21C35.9489 20.5444 36.0002 20.0832 36.15 19.65C36.2998 19.2194 36.5422 18.8269 36.86 18.5C37.407 17.9368 37.8115 17.2511 38.04 16.5C38.1247 16.172 38.1247 15.828 38.04 15.5C37.9971 15.3232 37.9262 15.1544 37.83 15L40.07 12.76L41.31 14C40.9796 14.3944 40.71 14.836 40.51 15.31C40.2544 15.945 40.1318 16.6257 40.15 17.31C40.1533 17.8577 40.269 18.3989 40.49 18.9C40.7017 19.4049 41.0149 19.861 41.41 20.24C41.5 20.33 41.6 20.39 41.69 20.47L46.89 25.66C47.2102 25.9967 47.3861 26.4453 47.38 26.91C47.3415 27.3235 47.1572 27.7099 46.86 28C46.6754 28.1819 46.4414 28.3054 46.1871 28.3552C45.9329 28.405 45.6695 28.3788 45.43 28.28C45.2694 28.2164 45.1231 28.1212 45 28C44.8297 27.8181 44.7334 27.5792 44.73 27.33C44.7277 27.2074 44.7504 27.0856 44.7969 26.9721C44.8433 26.8586 44.9124 26.7558 45 26.67C45.119 26.5497 45.2808 26.4813 45.45 26.48C45.6223 26.4809 45.7873 26.5491 45.91 26.67C45.9573 26.716 46.0131 26.7522 46.0744 26.7765C46.1357 26.8009 46.2011 26.813 46.2671 26.812C46.333 26.8111 46.3981 26.7972 46.4587 26.7711C46.5192 26.745 46.574 26.7073 46.62 26.66C46.666 26.6127 46.7022 26.5569 46.7265 26.4956C46.7509 26.4343 46.763 26.3689 46.7621 26.3029C46.7611 26.237 46.7472 26.1719 46.7211 26.1113C46.695 26.0508 46.6573 25.996 46.61 25.95C46.2983 25.6498 45.8828 25.4814 45.45 25.48C45.0201 25.4809 44.6075 25.6495 44.3 25.95C43.9513 26.3209 43.7571 26.8109 43.7571 27.32C43.7571 27.8291 43.9513 28.3191 44.3 28.69C44.5126 28.9069 44.768 29.0771 45.05 29.19C45.33 29.3085 45.631 29.3696 45.935 29.3696C46.2391 29.3696 46.54 29.3085 46.82 29.19C47.0978 29.0794 47.3497 28.9126 47.56 28.7C48.076 28.1933 48.3708 27.5031 48.38 26.78C48.3912 26.413 48.3298 26.0475 48.1993 25.7043C48.0689 25.3611 47.872 25.047 47.62 24.78L44 21.22C44.12 21.22 44.23 21.22 44.35 21.22C45.2539 21.2183 46.1204 20.8587 46.76 20.22C47.0822 19.9014 47.3368 19.5211 47.5086 19.1019C47.6804 18.6826 47.7659 18.233 47.76 17.78C47.7599 17.4046 47.6816 17.0334 47.53 16.69C47.3815 16.3455 47.1675 16.033 46.9 15.77C46.632 15.5114 46.3161 15.3075 45.97 15.17C45.6228 15.0344 45.2528 14.9665 44.88 14.97C44.2496 14.9805 43.6489 15.2397 43.2088 15.6911C42.7686 16.1425 42.5246 16.7495 42.53 17.38C42.53 17.4452 42.543 17.5097 42.5682 17.5699C42.5935 17.63 42.6305 17.6844 42.677 17.7301C42.7236 17.7757 42.7788 17.8116 42.8394 17.8356C42.9 17.8596 42.9648 17.8713 43.03 17.87C43.1626 17.87 43.2898 17.8173 43.3836 17.7236C43.4773 17.6298 43.53 17.5026 43.53 17.37C43.5244 17.1856 43.556 17.0021 43.623 16.8302C43.69 16.6584 43.791 16.5019 43.92 16.37C44.1853 16.1041 44.5445 15.9533 44.92 15.95C45.1628 15.9476 45.4038 15.9917 45.63 16.08C45.8568 16.169 46.064 16.3015 46.24 16.47C46.4111 16.6382 46.5471 16.8388 46.64 17.06C46.7382 17.2839 46.7893 17.5255 46.79 17.77C46.798 18.4154 46.55 19.0378 46.1002 19.5007C45.6503 19.9636 45.0354 20.2295 44.39 20.24C43.9646 20.2462 43.5424 20.1645 43.15 20C42.8759 19.8883 42.6198 19.7367 42.39 19.55L41.92 19.09C41.4459 18.5318 41.187 17.8224 41.19 17.09C41.1802 16.5525 41.2788 16.0185 41.48 15.52C41.6259 15.1613 41.8211 14.8247 42.06 14.52L42.17 14.63C42.2149 14.6778 42.2691 14.716 42.3293 14.742C42.3895 14.7681 42.4544 14.7815 42.52 14.7815C42.5856 14.7815 42.6505 14.7681 42.7107 14.742C42.7709 14.716 42.8251 14.6778 42.87 14.63C42.9169 14.5835 42.9541 14.5282 42.9795 14.4673C43.0048 14.4064 43.0179 14.341 43.0179 14.275C43.0179 14.209 43.0048 14.1436 42.9795 14.0827C42.9541 14.0218 42.9169 13.9665 42.87 13.92L42.76 13.81C43.0345 13.5774 43.341 13.3855 43.67 13.24C44.1609 13.0667 44.6796 12.9854 45.2 13C45.8843 12.9933 46.5634 13.1189 47.2 13.37C47.8389 13.6211 48.4205 13.9987 48.91 14.48C49.3994 14.9616 49.793 15.5317 50.07 16.16C50.3394 16.7928 50.4821 17.4723 50.49 18.16V48.26C50.4717 48.8674 50.2148 49.4432 49.7749 49.8624C49.335 50.2817 48.7476 50.5108 48.14 50.5C47.6784 50.487 47.2398 50.2952 46.917 49.9649C46.5942 49.6346 46.4124 49.1918 46.41 48.73C46.4167 48.5581 46.454 48.3888 46.52 48.23C46.5897 48.0707 46.6919 47.9276 46.82 47.81C46.9426 47.6906 47.0892 47.5986 47.25 47.54C47.4121 47.4756 47.5856 47.4449 47.76 47.45C47.8837 47.4525 48.0057 47.4795 48.1189 47.5292C48.2322 47.579 48.3345 47.6506 48.42 47.74C48.5067 47.8251 48.5748 47.9273 48.62 48.04C48.6641 48.1547 48.6845 48.2772 48.68 48.4C48.6788 48.4857 48.6618 48.5704 48.63 48.65C48.5917 48.7277 48.541 48.7986 48.48 48.86C48.4171 48.9213 48.3422 48.9689 48.26 49C48.1778 49.0192 48.0922 49.0192 48.01 49C47.9443 48.9973 47.8788 49.0076 47.8171 49.0303C47.7554 49.053 47.6988 49.0876 47.6505 49.1322C47.6022 49.1768 47.5632 49.2304 47.5356 49.2901C47.5081 49.3498 47.4926 49.4143 47.49 49.48C47.4873 49.5457 47.4976 49.6112 47.5203 49.6729C47.543 49.7346 47.5776 49.7912 47.6222 49.8395C47.6668 49.8878 47.7204 49.9269 47.7801 49.9544C47.8398 49.9819 47.9043 49.9974 47.97 50C48.1899 50.0108 48.4096 49.977 48.616 49.9005C48.8225 49.8241 49.0113 49.7066 49.1711 49.5553C49.3308 49.4039 49.4583 49.2217 49.5458 49.0197C49.6333 48.8177 49.6789 48.6001 49.68 48.38C49.6875 48.1271 49.6432 47.8753 49.55 47.64C49.4605 47.3999 49.3207 47.1817 49.14 47C48.9595 46.8176 48.7456 46.6716 48.51 46.57C48.2789 46.4713 48.0312 46.417 47.78 46.41C47.4795 46.3996 47.1801 46.4507 46.9 46.56C46.6112 46.6663 46.3487 46.8334 46.13 47.05C45.6844 47.4771 45.4256 48.063 45.41 48.68C45.4124 49.4036 45.6968 50.0978 46.2028 50.615C46.7089 51.1322 47.3966 51.4318 48.12 51.45C48.9935 51.4625 49.8371 51.1322 50.47 50.53C51.0897 49.9266 51.4487 49.1047 51.47 48.24V18.13L51.5 18.12ZM45.13 5C46.1152 4.14801 47.3219 3.59318 48.61 3.4C48.4122 4.68561 47.8539 5.88878 47 6.87C46.2502 7.52605 45.3663 8.01065 44.41 8.29L47.15 5.54C47.2428 5.44717 47.295 5.32128 47.295 5.19C47.295 5.05872 47.2428 4.93283 47.15 4.84C47.104 4.79404 47.0495 4.75758 46.9894 4.7327C46.9294 4.70783 46.865 4.69503 46.8 4.69503C46.6687 4.69503 46.5428 4.74717 46.45 4.84L43.71 7.58C43.9907 6.62722 44.4752 5.74688 45.13 5ZM37.05 16.13C36.8722 16.7439 36.5499 17.3063 36.11 17.77C35.6913 18.2072 35.3708 18.7289 35.17 19.3C35.17 19.43 35.11 19.58 35.08 19.72C34.99 19.56 34.89 19.4 34.81 19.24C34.7538 19.1238 34.654 19.0344 34.5323 18.9913C34.4106 18.9483 34.2768 18.955 34.16 19.01C33.53 19.29 32.9 19.53 32.25 19.75C32.4661 19.1005 32.7165 18.463 33 17.84C33.055 17.7232 33.0617 17.5894 33.0187 17.4677C32.9756 17.346 32.8862 17.2462 32.77 17.19L32.29 16.92C32.43 16.92 32.58 16.87 32.71 16.83C33.2811 16.6292 33.8028 16.3087 34.24 15.89C34.7031 15.4709 35.2579 15.1661 35.86 15C36.0263 14.9497 36.2037 14.9497 36.37 15C36.5344 15.0465 36.6841 15.1343 36.8049 15.2551C36.9257 15.3759 37.0135 15.5256 37.06 15.69C37.094 15.8351 37.0906 15.9865 37.05 16.13Z" fill="#E0E0E0"/>
</svg>
